<?xml version="1.0" standalone="no"?>
<!DOCTYPE svg PUBLIC "-//W3C//DTD SVG 20010904//EN"
 "http://www.w3.org/TR/2001/REC-SVG-20010904/DTD/svg10.dtd">
<svg version="1.0" xmlns="http://www.w3.org/2000/svg"
 width="260.000000pt" height="260.000000pt" viewBox="0 0 260.000000 260.000000"
 preserveAspectRatio="xMidYMid meet">
<metadata>
Created by potrace 1.11, written by Peter Selinger 2001-2013
</metadata>
<g transform="translate(0.000000,260.000000) scale(0.100000,-0.100000)"
fill="#000000" stroke="none">
<path d="M241 2422 c-13 -24 -71 -183 -71 -194 0 -15 68 -9 74 7 7 20 72 20
79 1 5 -12 32 -15 131 -15 l126 -1 0 29 c0 29 -2 30 -51 33 l-52 3 -1 75 -1
75 -35 0 -35 0 0 -98 c0 -53 -2 -97 -5 -97 -3 0 -21 44 -40 98 l-35 97 -37 3
c-28 2 -39 -1 -47 -16z m58 -109 c1 -7 -6 -13 -14 -13 -16 0 -19 17 -8 46 6
16 7 16 14 -2 4 -10 8 -25 8 -31z"/>
<path d="M590 2331 l0 -111 85 0 85 0 0 30 c0 29 -1 30 -50 30 l-49 0 -3 78
-3 77 -32 3 -33 3 0 -110z"/>
<path d="M774 2427 c-3 -8 -3 -56 -2 -108 l3 -94 128 -2 127 -1 0 109 0 109
-30 0 c-22 0 -33 -6 -40 -22 l-9 -23 0 23 c-1 21 -5 22 -86 22 -62 0 -87 -4
-91 -13z m186 -94 l0 -58 -60 3 c-43 3 -60 8 -60 18 0 10 14 14 50 14 47 0 50
2 50 25 0 23 -3 25 -50 25 -69 0 -63 18 8 23 31 2 58 4 60 5 1 1 2 -24 2 -55z"/>
<path d="M1044 2427 c-3 -8 -3 -56 -2 -108 l3 -94 30 0 c29 0 30 1 30 48 0 26
2 47 5 47 3 -1 22 -23 43 -50 31 -40 44 -50 68 -50 l29 0 0 110 0 110 -30 0
c-29 0 -30 -1 -30 -52 l0 -53 -46 53 c-46 52 -88 69 -100 39z"/>
<path d="M1264 2427 c-2 -7 -3 -56 -2 -108 l3 -94 93 -3 92 -3 0 31 0 30 -61
0 c-74 0 -79 23 -6 28 42 3 47 6 47 28 0 22 -4 24 -50 24 -27 0 -50 5 -50 10
0 6 27 10 61 10 60 0 60 0 57 28 -3 27 -3 27 -91 30 -67 2 -89 0 -93 -11z"/>
<path d="M595 2195 c-22 -8 -45 -22 -52 -32 -20 -26 -16 -90 6 -112 18 -18
107 -51 138 -51 7 0 13 -7 13 -15 0 -11 -11 -15 -40 -15 -29 0 -40 4 -40 15 0
11 -12 15 -51 15 -51 0 -51 0 -44 -27 12 -53 66 -82 149 -83 51 0 115 37 125
73 l8 32 11 -26 c34 -86 184 -105 256 -33 16 17 26 38 26 55 0 27 -2 29 -43
29 -34 0 -44 -4 -52 -22 -8 -18 -18 -23 -45 -23 -43 0 -63 32 -56 88 6 49 21
67 58 67 24 0 32 -6 41 -30 10 -27 16 -30 54 -30 41 0 43 1 43 29 0 41 -43 88
-92 101 -106 29 -208 -38 -208 -136 0 -26 -1 -27 -20 -9 -11 10 -48 25 -82 34
-41 11 -63 22 -63 31 0 24 42 24 62 1 12 -14 29 -21 55 -21 43 0 52 9 39 44
-20 51 -123 78 -196 51z"/>
<path d="M170 2125 c0 -73 1 -75 25 -75 17 0 25 6 25 17 0 15 1 15 18 0 28
-26 97 -22 116 5 13 19 14 25 2 43 -7 11 -27 24 -45 29 -17 5 -31 13 -31 17 0
12 27 11 35 -1 8 -13 45 -13 45 -1 0 21 -34 41 -69 41 -42 0 -61 -14 -61 -46
0 -26 15 -40 53 -49 15 -4 27 -11 27 -16 0 -12 -27 -11 -35 1 -3 6 -17 10 -31
10 -22 0 -24 4 -24 50 0 47 -2 50 -25 50 -24 0 -25 -2 -25 -75z"/>
<path d="M370 2181 c0 -13 8 -21 23 -23 19 -3 22 -10 25 -55 3 -49 5 -53 28
-53 23 0 24 3 24 55 0 48 2 55 20 55 13 0 20 7 20 20 0 18 -7 20 -70 20 -62 0
-70 -2 -70 -19z"/>
<path d="M1120 2050 l0 -150 50 0 50 0 0 55 0 55 50 0 50 0 0 -55 0 -55 50 0
50 0 0 150 0 150 -50 0 -50 0 0 -55 0 -55 -50 0 -50 0 0 55 0 55 -50 0 -50 0
0 -150z"/>
<path d="M1440 2188 c0 -7 14 -75 32 -150 l32 -138 56 0 57 0 13 73 c7 39 16
76 20 80 4 5 13 -20 19 -55 19 -98 19 -98 54 -98 18 0 39 -5 47 -10 11 -7 3
-10 -28 -10 -27 0 -50 -6 -60 -16 -10 -11 -17 -13 -20 -5 -10 31 -20 4 -20
-54 1 -50 -4 -71 -18 -88 -10 -12 -12 -16 -4 -9 17 14 34 16 25 2 -3 -5 -1
-10 5 -10 7 0 10 7 6 15 -3 8 -1 15 3 15 15 0 19 -25 7 -43 -10 -13 -15 -14
-25 -4 -10 9 -11 6 -6 -15 4 -16 3 -28 -2 -28 -5 0 -10 -32 -11 -71 -2 -42 -9
-80 -17 -92 -12 -18 -11 -26 11 -68 20 -41 23 -55 15 -87 -4 -22 -5 -61 -1
-88 10 -64 5 -67 -12 -7 -8 26 -20 47 -26 46 -6 -2 -14 8 -18 21 -4 17 -11 23
-25 21 -11 -2 -17 0 -14 6 4 5 -7 9 -22 9 -16 0 -34 5 -41 12 -7 7 -12 8 -12
2 0 -6 -13 -9 -30 -6 -17 2 -38 -2 -47 -9 -12 -10 -15 -10 -9 -1 5 9 1 11 -16
8 -13 -3 -26 -5 -30 -5 -5 -1 -8 -7 -8 -14 0 -8 -11 -19 -24 -25 -13 -6 -34
-31 -47 -56 -12 -25 -31 -48 -41 -52 -29 -9 -47 -45 -52 -102 -2 -29 -7 -56
-10 -59 -3 -4 -6 -19 -6 -35 0 -20 -5 -28 -17 -28 -14 0 -15 -2 -4 -9 11 -7
11 -16 -3 -53 -10 -24 -16 -48 -15 -54 1 -5 0 -12 -1 -16 -1 -5 -3 -11 -5 -15
-1 -5 -5 -15 -9 -24 -4 -8 0 -28 8 -43 8 -16 12 -35 9 -44 -4 -9 -2 -13 4 -9
13 8 27 -23 16 -34 -4 -4 -25 1 -45 11 -21 10 -38 14 -38 9 0 -5 5 -9 11 -9 5
0 7 -5 3 -11 -4 -7 -18 0 -38 18 -100 92 -95 92 -221 -27 -59 -56 -130 -116
-158 -134 -79 -50 -154 -86 -180 -86 -23 0 -24 3 -30 107 -10 152 -9 363 2
363 15 0 28 -23 50 -93 13 -37 27 -67 32 -67 6 0 8 9 4 20 -3 10 -1 29 5 40
11 21 12 21 25 3 11 -13 14 -14 15 -4 0 11 5 10 23 -5 49 -42 81 -53 157 -55
59 -1 92 7 103 27 8 14 11 14 29 -3 21 -17 21 -17 11 1 -9 15 -3 26 30 60 42
44 62 81 83 161 22 81 9 67 -37 -42 -8 -18 -20 -33 -26 -33 -7 0 -13 -7 -13
-15 0 -8 -6 -15 -14 -15 -7 0 -16 -8 -18 -18 -6 -21 -70 -43 -89 -31 -8 5 -24
9 -36 9 -14 0 -23 6 -23 16 0 13 -8 15 -50 9 -62 -9 -99 6 -129 52 -19 29 -20
37 -9 51 10 12 10 14 0 8 -9 -6 -11 3 -7 38 3 26 2 46 -3 46 -6 0 -17 12 -27
26 -12 19 -14 29 -6 37 16 16 14 40 -4 34 -21 -9 -30 53 -16 111 7 26 24 64
39 86 26 38 38 106 18 106 -6 0 -6 3 -1 9 6 5 51 12 100 15 50 3 118 8 151 12
41 4 64 2 68 -5 4 -6 20 -11 35 -11 35 0 57 -24 82 -89 25 -68 25 -71 -15 -71
-26 0 -41 -7 -60 -31 -26 -31 -33 -49 -18 -49 4 0 13 5 19 11 6 6 21 8 33 4
17 -5 21 -13 17 -31 -2 -13 0 -21 5 -18 4 3 11 -2 15 -12 11 -28 53 53 53 103
0 23 5 54 12 68 9 21 8 34 -10 78 -17 40 -20 59 -13 83 5 18 5 37 0 45 -5 8
-9 23 -9 35 0 27 -56 79 -100 92 -58 19 -279 22 -319 6 -18 -8 -45 -14 -60
-14 -29 -1 -44 -8 -119 -64 -43 -31 -60 -53 -88 -112 -32 -66 -36 -83 -38
-171 -4 -125 16 -226 53 -273 56 -70 58 -82 63 -282 l4 -188 -33 -15 c-18 -9
-33 -22 -33 -30 0 -8 -3 -15 -7 -16 -5 0 -22 -2 -40 -3 l-32 -4 16 37 c8 20
16 45 18 56 2 23 11 48 30 90 31 68 48 134 51 198 3 79 -4 105 -46 155 -17 20
-30 44 -30 54 0 9 -13 26 -28 37 -34 24 -110 43 -118 30 -3 -5 -14 -9 -25 -9
-10 0 -19 -5 -19 -12 0 -23 -18 7 -23 37 -2 17 -5 -145 -6 -359 0 -214 2 -387
5 -384 3 4 18 3 32 -2 15 -4 38 -3 51 2 17 6 29 4 41 -7 11 -10 32 -14 68 -11
29 2 52 0 52 -5 0 -5 -8 -9 -17 -10 -10 -1 -36 -2 -58 -4 -22 -1 -49 2 -60 8
-11 6 -41 11 -68 11 -43 1 -47 -1 -47 -23 0 -21 3 -23 29 -18 19 4 33 1 41 -8
9 -10 32 -14 79 -13 37 1 72 -2 78 -5 6 -4 35 -3 64 2 30 5 65 9 79 9 14 0 43
3 64 7 27 6 37 5 32 -3 -9 -15 -97 -31 -181 -33 -122 -3 -225 3 -231 12 -11
18 -52 10 -57 -11 -11 -43 36 -53 246 -52 89 0 180 18 212 42 14 11 75 18 75
9 0 -8 -56 -29 -77 -29 -8 0 -29 -6 -46 -14 -65 -28 -122 -36 -227 -31 -58 3
-122 6 -143 7 -20 1 -37 -1 -37 -5 0 -4 0 -15 0 -26 0 -22 31 -28 175 -37 98
-7 147 3 196 37 14 10 29 16 32 13 5 -5 53 6 97 23 24 9 80 11 80 2 0 -15 -42
-31 -66 -25 -14 4 -24 2 -24 -4 0 -5 -10 -10 -22 -10 -30 0 -107 -24 -148 -45
-36 -19 -189 -22 -273 -6 l-47 8 0 -32 c0 -31 3 -34 38 -39 20 -3 80 -7 132
-8 81 -3 100 0 125 16 17 11 37 21 45 22 8 1 33 6 55 11 56 14 165 16 165 4 0
-17 -18 -22 -102 -27 -46 -2 -98 -9 -115 -15 -29 -9 -32 -14 -27 -37 10 -41
12 -42 69 -42 41 0 60 5 82 23 62 50 68 53 58 37 -4 -8 -17 -25 -27 -36 l-19
-22 163 0 c157 0 161 0 118 14 -50 17 -152 22 -189 10 -17 -6 -22 -5 -19 5 12
36 171 32 290 -6 54 -18 97 -25 132 -23 l51 3 -43 23 c-51 26 -134 55 -211 72
-57 13 -158 8 -191 -10 -22 -12 -27 2 -7 18 23 19 133 32 195 22 89 -15 127
-28 268 -96 81 -39 84 -39 84 -19 0 8 3 15 6 15 3 0 12 -7 20 -15 17 -16 117
-20 189 -7 33 7 36 9 18 14 -19 5 -23 13 -23 42 0 22 5 36 13 36 9 0 9 2 0 8
-11 7 -17 26 -14 48 5 48 213 43 313 -7 45 -23 85 -74 90 -114 l3 -30 355 0
355 0 3 327 c2 324 2 327 -19 333 -35 12 -139 77 -169 107 -16 15 -38 28 -50
28 -12 0 -25 9 -30 23 -10 22 -10 22 -8 -3 0 -14 -2 -41 -5 -60 -15 -86 -18
-132 -8 -126 10 7 27 108 22 141 -2 15 4 11 23 -14 16 -22 26 -48 26 -69 0
-19 7 -49 16 -68 30 -64 0 -103 -91 -118 -34 -6 -51 -1 -120 34 -119 61 -265
179 -265 214 0 13 44 44 56 39 10 -4 12 0 8 11 -11 29 40 19 72 -15 30 -32 74
-59 95 -59 6 0 -9 19 -35 43 -53 50 -60 86 -23 112 12 8 22 19 21 23 0 4 27
25 60 47 74 49 85 73 85 205 1 88 0 93 -15 78 -13 -13 -16 -33 -15 -83 1 -44
-3 -73 -13 -86 -8 -12 -12 -27 -10 -34 3 -7 0 -16 -7 -21 -8 -5 -10 -3 -4 5 5
9 1 9 -16 -1 -32 -18 -44 -30 -53 -53 -6 -14 -10 -16 -13 -7 -4 10 -9 9 -24
-4 -10 -9 -19 -13 -19 -8 0 5 -5 2 -10 -6 -9 -13 -12 -12 -26 5 -14 19 -16 19
-25 2 -6 -9 -14 -15 -20 -12 -5 4 -9 1 -9 -6 0 -8 -4 -8 -16 2 -13 10 -17 10
-25 -2 -5 -8 -9 -10 -9 -5 0 5 -7 3 -15 -4 -13 -10 -15 -9 -15 9 0 12 -4 20
-8 17 -5 -3 -9 11 -10 31 -2 44 -1 43 -51 50 -70 9 -45 21 59 28 69 5 103 12
112 22 17 21 -15 44 -52 37 -15 -4 -40 1 -56 9 -16 8 -42 13 -57 10 -16 -3
-27 -1 -27 6 0 11 18 15 53 12 9 -1 17 3 17 9 0 12 -42 10 -85 -4 -11 -4 -28
-1 -37 6 -15 12 -15 17 -2 53 8 22 23 64 31 94 l17 54 -42 37 c-23 21 -43 49
-46 66 -4 16 -3 23 0 15 9 -18 57 37 49 57 -3 7 -5 23 -5 35 0 18 -2 19 -10 7
-5 -8 -10 -10 -10 -5 0 19 39 44 86 56 58 15 238 3 296 -20 37 -14 48 -39 48
-109 0 -69 17 -117 55 -152 15 -14 31 -35 36 -47 9 -25 32 -32 27 -9 -2 8 0
15 5 15 22 2 28 0 22 -9 -3 -5 0 -7 9 -4 16 6 32 -29 20 -47 -4 -7 -3 -9 3 -6
6 4 9 29 8 57 -5 60 9 73 30 28 14 -31 15 -31 11 -6 -1 15 1 25 5 22 24 -14 0
-101 -41 -155 -24 -30 -30 -49 -36 -120 -6 -72 -5 -81 7 -69 8 8 20 28 27 43
6 15 19 30 27 33 11 5 15 21 15 59 0 29 3 55 8 57 4 2 20 21 37 43 30 41 35
63 35 190 1 47 -39 228 -57 259 -15 26 -126 118 -157 130 l-31 11 45 5 45 5 0
50 c0 71 23 71 58 0 l27 -55 55 0 56 0 -31 59 -32 59 26 25 c37 37 36 89 -3
128 -29 29 -31 29 -145 29 l-116 0 -2 -152 c-1 -84 -3 -136 -5 -116 l-4 37
-82 3 c-74 3 -82 5 -82 23 0 18 8 20 68 23 l67 3 0 34 0 35 -71 0 c-62 0 -70
2 -67 18 3 14 16 17 86 20 l82 3 0 34 0 35 -129 0 c-153 0 -141 14 -141 -167
0 -68 -3 -123 -7 -124 -5 0 -21 -3 -36 -5 -26 -4 -27 -3 -21 23 3 15 8 34 10
42 3 8 14 55 25 105 11 50 22 99 25 109 5 15 -2 17 -45 17 l-50 0 -11 -57
c-20 -102 -22 -103 -39 -23 l-16 75 -51 3 -51 3 -13 -77 c-15 -85 -21 -82 -40
19 l-11 57 -50 0 c-32 0 -49 -4 -49 -12z m895 -83 c0 -16 -8 -21 -42 -23 -40
-3 -43 -2 -43 23 0 25 3 26 43 23 34 -2 42 -7 42 -23z m-614 -262 c-12 -20
-14 -14 -5 12 4 9 9 14 11 11 3 -2 0 -13 -6 -23z m-31 -443 c0 -5 -4 -10 -10
-10 -5 0 -10 5 -10 10 0 6 5 10 10 10 6 0 10 -4 10 -10z m-680 -132 c0 -17 -3
-19 -12 -10 -7 7 -21 12 -32 12 -17 0 -18 2 -6 10 27 17 50 12 50 -12z m-674
-3 c4 -8 10 -12 16 -9 5 3 18 -3 28 -14 13 -13 15 -22 8 -24 -7 -3 -8 -9 -3
-18 5 -8 8 -29 6 -47 -1 -19 2 -33 8 -33 6 0 10 12 9 28 -2 15 2 28 7 30 17 4
18 -103 1 -117 -43 -36 -96 42 -104 152 -3 47 -1 67 7 67 6 0 14 -7 17 -15z
m1477 -107 c8 6 24 4 42 -4 28 -12 25 -13 -47 -14 -42 0 -79 4 -82 9 -4 5 3 7
13 4 11 -3 28 0 38 5 11 7 19 7 21 1 3 -6 9 -6 15 -1z m-125 -143 c11 -33 23
-67 27 -76 4 -12 -4 -20 -34 -32 -21 -9 -42 -21 -46 -27 -3 -5 -10 -10 -15
-10 -5 0 2 17 16 37 13 20 22 43 20 50 -3 7 -1 13 5 13 6 0 7 4 4 10 -3 5 -8
36 -10 67 -4 65 3 58 33 -32z m52 25 c0 -5 -5 -10 -11 -10 -5 0 -7 5 -4 10 3
6 8 10 11 10 2 0 4 -4 4 -10z m-779 -360 c60 0 54 -17 -6 -19 -29 0 -57 3 -60
9 -3 5 -12 7 -20 3 -8 -3 -15 0 -15 5 0 13 42 21 55 10 5 -4 26 -8 46 -8z
m116 -56 c18 -3 33 0 35 6 2 6 11 8 21 5 9 -4 14 -11 11 -16 -3 -5 15 -19 40
-30 25 -11 46 -22 46 -24 0 -2 3 -12 7 -22 5 -15 3 -15 -18 4 -45 41 -115 64
-195 66 -41 1 -74 4 -74 8 0 19 16 20 127 3z m-208 -6 c15 -9 17 -16 10 -30
-5 -10 -14 -18 -20 -18 -6 0 -8 4 -4 9 9 15 -29 31 -56 24 -16 -4 -21 -2 -14
5 9 9 31 17 58 21 4 0 16 -4 26 -11z m66 2 c-3 -5 -11 -10 -16 -10 -6 0 -7 5
-4 10 3 6 11 10 16 10 6 0 7 -4 4 -10z m-15 -37 c0 -5 38 -6 84 -5 94 4 145
-12 217 -69 56 -44 48 -56 -10 -14 -26 19 -67 42 -91 50 -50 17 -163 20 -208
4 -17 -6 -39 -8 -49 -6 -16 4 -15 6 5 12 12 4 22 14 22 21 0 8 7 14 15 14 8 0
15 -3 15 -7z m-535 -23 c-3 -5 -11 -10 -16 -10 -6 0 -7 5 -4 10 3 6 11 10 16
10 6 0 7 -4 4 -10z m411 -17 c-5 -11 0 -13 17 -8 21 6 21 6 3 -9 -25 -20 -50
-21 -42 -1 3 9 -1 15 -11 15 -12 0 -13 3 -3 14 14 18 43 9 36 -11z m-56 -4 c0
-5 -9 -9 -20 -9 -22 0 -27 16 -7 23 15 5 27 -1 27 -14z m-467 -37 c10 -10 14
-22 10 -25 -7 -8 -43 21 -43 35 0 14 16 9 33 -10z m865 -17 c61 -28 112 -70
112 -92 0 -9 -14 -3 -37 16 -63 50 -129 74 -220 79 -105 6 -173 -11 -288 -71
-18 -9 -19 -9 -5 8 11 13 12 19 3 22 -7 2 -9 11 -6 19 3 8 0 14 -7 14 -6 0 -8
5 -5 10 12 20 35 10 35 -14 0 -23 2 -24 38 -14 20 5 42 13 47 17 10 8 77 26
125 35 55 10 153 -4 208 -29z m-793 15 c-3 -5 -13 -10 -21 -10 -8 0 -14 5 -14
10 0 6 9 10 21 10 11 0 17 -4 14 -10z m323 -22 c-3 -7 -16 -13 -29 -14 -13 0
-35 -4 -49 -8 -24 -8 -24 -7 -5 7 34 25 89 34 83 15z m-258 -39 c0 -5 -11 -9
-25 -9 -24 0 -32 10 -19 22 8 8 44 -3 44 -13z m234 -5 c23 -9 9 -24 -23 -24
-15 0 -32 -5 -38 -11 -8 -8 -13 -8 -18 0 -3 6 2 14 12 17 10 3 25 9 33 14 8 5
16 9 17 9 1 1 8 -2 17 -5z m466 -30 c72 -34 130 -83 130 -109 0 -12 -12 -6
-45 23 -25 22 -76 53 -113 68 -59 24 -80 28 -172 28 -86 0 -114 -4 -154 -22
-62 -28 -69 -28 -26 2 52 35 104 45 215 43 89 -2 107 -5 165 -33z m-444 -15
c3 -6 2 -15 -2 -19 -12 -12 -38 5 -30 19 9 14 23 14 32 0z m323 -34 c75 -18
139 -51 201 -105 65 -56 42 -60 -37 -6 -116 79 -216 106 -347 91 -44 -4 -77
-14 -101 -30 -36 -25 -49 -20 -17 6 64 54 185 71 301 44z m-312 -27 c-3 -7 -5
-2 -5 12 0 14 2 19 5 13 2 -7 2 -19 0 -25z m233 -49 c74 -12 123 -31 226 -92
50 -28 73 -48 74 -61 0 -17 -2 -18 -17 -5 -43 35 -208 111 -270 124 -79 17
-189 20 -198 5 -3 -5 -15 -10 -26 -10 -11 0 -22 -7 -25 -15 -4 -8 -10 -15 -15
-15 -22 0 8 32 45 49 73 33 106 36 206 20z m-437 -186 c-7 -2 -21 -2 -30 0
-10 3 -4 5 12 5 17 0 24 -2 18 -5z"/>
<path d="M326 1214 c-4 -14 -5 -28 -3 -31 3 -2 8 8 11 23 4 14 5 28 3 31 -3 2
-8 -8 -11 -23z"/>
<path d="M1875 1511 c-61 -6 -121 -34 -110 -51 4 -6 16 -10 29 -10 25 0 61
-33 61 -58 0 -22 18 -25 40 -7 14 12 16 18 8 21 -7 3 -13 10 -13 16 0 10 29 7
63 -7 10 -4 17 -3 17 3 0 6 -16 14 -35 18 -29 5 -33 9 -24 20 9 11 8 14 -5 14
-10 0 -14 5 -10 11 4 7 28 9 66 6 49 -4 58 -3 47 8 -19 17 -63 22 -134 16z"/>
<path d="M620 1349 c-14 -5 -31 -18 -38 -29 -14 -23 -5 -25 22 -5 29 22 96 18
148 -8 38 -19 47 -21 58 -9 17 19 -5 33 -80 49 -65 14 -77 14 -110 2z"/>
<path d="M663 1302 c-17 -11 -20 -44 -4 -50 8 -3 11 0 7 6 -3 6 2 15 11 21 11
6 13 11 5 11 -7 0 -10 5 -7 10 7 12 4 12 -12 2z"/>
<path d="M713 1293 c10 -3 16 -11 14 -18 -6 -13 10 -35 25 -35 4 0 8 7 8 16 0
14 3 14 15 4 24 -20 27 -6 5 18 -14 15 -32 22 -53 21 -18 -1 -24 -3 -14 -6z"/>
<path d="M2230 1290 c0 -5 5 -10 10 -10 6 0 10 5 10 10 0 6 -4 10 -10 10 -5 0
-10 -4 -10 -10z"/>
<path d="M2210 1232 c0 -16 28 -34 34 -23 4 6 -3 15 -14 21 -11 6 -20 7 -20 2z"/>
<path d="M772 1110 c3 -9 17 -15 35 -15 16 0 37 -8 46 -17 21 -21 22 -35 2
-18 -8 7 -15 9 -15 5 0 -4 -6 -2 -13 4 -18 14 -26 5 -20 -20 5 -19 19 -24 59
-20 11 0 28 -7 38 -18 16 -18 15 -18 -26 -10 -24 4 -62 8 -86 9 -24 0 -41 4
-38 8 2 4 1 14 -4 22 -7 11 -11 11 -23 1 -11 -8 -16 -9 -19 -1 -2 8 -13 4 -28
-8 -14 -11 -22 -24 -17 -28 4 -4 55 -9 113 -10 58 -1 111 -7 117 -12 7 -5 24
-12 38 -16 50 -11 48 46 -3 84 -28 21 -29 22 -11 36 17 13 16 14 -9 8 -17 -4
-35 0 -50 10 -26 19 -58 21 -58 5 0 -8 -6 -7 -17 2 -14 12 -16 12 -11 -1z"/>
<path d="M770 1040 c0 -5 5 -10 10 -10 6 0 10 5 10 10 0 6 -4 10 -10 10 -5 0
-10 -4 -10 -10z"/>
<path d="M810 946 c0 -7 7 -19 15 -26 13 -11 20 -11 40 0 31 17 32 26 3 34
-37 10 -58 7 -58 -8z"/>
<path d="M1105 670 c3 -5 8 -10 11 -10 2 0 4 5 4 10 0 6 -5 10 -11 10 -5 0 -7
-4 -4 -10z"/>
<path d="M346 118 c-12 -7 -62 -9 -142 -6 -111 4 -123 3 -127 -13 -3 -10 -2
-20 1 -23 8 -9 312 -7 312 2 0 17 -13 52 -19 52 -3 0 -15 -6 -25 -12z"/>
</g>
</svg>
