<?xml version="1.0" standalone="no"?>
<!DOCTYPE svg PUBLIC "-//W3C//DTD SVG 20010904//EN"
 "http://www.w3.org/TR/2001/REC-SVG-20010904/DTD/svg10.dtd">
<svg version="1.0" xmlns="http://www.w3.org/2000/svg"
 width="616.000000pt" height="616.000000pt" viewBox="0 0 616.000000 616.000000"
 preserveAspectRatio="xMidYMid meet">
<metadata>
Created by potrace 1.11, written by Peter Selinger 2001-2013
</metadata>
<g transform="translate(0.000000,616.000000) scale(0.100000,-0.100000)"
fill="#000000" stroke="none">
<path d="M3132 5769 c-65 -8 -142 -39 -172 -69 -25 -25 -80 -42 -95 -30 -8 7
-22 7 -36 2 -13 -5 -41 -10 -62 -10 -21 -1 -45 -6 -55 -11 -14 -9 -12 -10 13
-11 28 0 28 -1 10 -14 -33 -22 -87 -26 -92 -6 -4 15 -10 15 -70 3 -36 -8 -78
-23 -94 -33 -15 -11 -31 -20 -37 -20 -5 0 -16 -8 -23 -17 -13 -15 -12 -16 11
-9 14 5 42 10 63 13 28 4 37 10 37 24 0 10 6 19 13 19 6 0 23 3 37 6 l25 6
-22 -20 c-23 -20 -30 -42 -15 -42 5 0 17 9 27 20 18 20 55 28 55 12 0 -5 -15
-16 -32 -26 -58 -30 -81 -44 -87 -53 -13 -17 -70 -52 -96 -59 -18 -4 -32 -18
-42 -41 -8 -22 -19 -33 -27 -30 -8 3 -19 0 -25 -6 -15 -15 -14 6 2 22 10 11 6
13 -22 7 -28 -5 -32 -4 -21 8 6 8 26 20 43 26 29 10 75 56 65 65 -8 8 -127
-71 -131 -87 -6 -21 -27 -24 -27 -4 0 7 9 25 20 39 25 31 25 37 1 37 -13 0
-18 -5 -15 -17 4 -13 -4 -21 -28 -30 -91 -32 -183 -63 -186 -63 -2 0 -1 4 2 9
10 16 -78 -1 -106 -20 -14 -11 -30 -19 -35 -19 -20 0 -92 -46 -96 -62 -6 -19
8 -34 17 -19 3 5 17 12 32 15 14 4 43 18 64 31 32 20 39 22 44 9 4 -11 -8 -21
-41 -36 -40 -18 -44 -22 -28 -28 19 -7 19 -7 -2 -18 -12 -7 -31 -12 -41 -12
-11 0 -44 -13 -74 -28 -29 -16 -64 -31 -77 -35 -29 -7 -18 -27 15 -27 36 0 25
-21 -17 -36 -20 -6 -60 -36 -90 -66 -61 -61 -106 -94 -116 -84 -4 3 3 19 15
34 12 15 27 37 34 49 6 12 26 27 44 33 40 13 61 37 47 51 -7 7 -21 3 -44 -13
-58 -40 -81 -60 -186 -167 -105 -106 -144 -171 -142 -239 0 -25 1 -25 12 -8 7
10 22 31 34 46 12 15 20 35 18 46 -6 25 33 69 71 79 16 4 23 10 17 12 -26 10
-12 23 22 20 40 -2 43 -7 15 -32 -31 -28 -24 -36 30 -30 50 5 60 -1 38 -23 -9
-9 -2 -12 35 -12 26 0 47 -4 47 -10 0 -5 -5 -10 -11 -10 -5 0 -7 -5 -4 -10 4
-7 12 -7 25 0 10 5 32 10 49 10 17 0 31 4 31 8 0 12 -88 35 -115 30 -19 -4
-25 -1 -25 13 0 11 -4 19 -10 19 -19 0 -10 17 15 28 32 15 45 15 45 2 0 -5 -9
-10 -20 -10 -11 0 -20 -4 -20 -10 0 -13 27 -13 35 0 3 5 37 8 75 7 55 -2 77
-8 102 -27 21 -15 33 -19 36 -12 2 7 12 12 22 12 10 0 25 6 32 13 18 18 77 41
85 34 3 -4 1 -13 -5 -20 -7 -8 -9 -17 -5 -21 4 -3 -2 -13 -13 -20 -18 -14 -18
-15 9 -21 15 -4 27 -11 27 -17 0 -5 -8 -7 -17 -4 -56 16 -71 17 -86 2 -8 -9
-27 -16 -41 -16 -27 0 -44 -16 -24 -23 7 -2 10 -7 7 -11 -4 -4 -18 -1 -33 5
-19 9 -30 9 -37 2 -8 -8 -1 -13 23 -18 46 -10 49 -13 36 -35 -9 -14 -9 -22 1
-34 18 -22 38 -20 51 5 9 17 8 23 -6 33 -18 14 -12 36 11 36 9 0 12 -6 9 -15
-8 -20 1 -19 22 2 15 16 17 16 30 -1 7 -11 15 -24 17 -29 2 -7 22 -3 53 10 27
12 51 20 53 17 8 -7 -23 -36 -59 -54 -20 -10 -42 -26 -49 -34 -10 -12 -17 -14
-27 -5 -15 12 -44 5 -44 -11 0 -5 9 -10 20 -10 28 0 25 -11 -15 -50 -34 -33
-59 -83 -48 -94 16 -15 52 -4 69 22 l18 27 7 -25 c12 -44 10 -97 -6 -110 -8
-7 -24 -43 -35 -81 -18 -61 -24 -69 -45 -69 -26 0 -33 14 -15 25 8 5 7 12 -1
22 -10 11 -9 20 5 44 11 19 16 40 12 54 -5 18 -1 27 14 35 29 15 25 32 -7 28
-20 -2 -28 -9 -28 -23 0 -14 -8 -21 -27 -23 -14 -2 -31 -9 -37 -16 -14 -16 -3
-78 12 -69 7 4 8 0 4 -11 -4 -10 -7 -20 -7 -22 0 -3 -10 -8 -23 -13 -15 -6
-27 -23 -36 -51 -8 -27 -17 -40 -25 -37 -8 3 -19 0 -26 -6 -10 -10 -12 -7 -7
11 3 13 3 30 0 38 -5 12 -9 12 -26 -3 -24 -21 -25 -24 23 91 19 45 38 76 46
76 8 0 19 11 23 24 10 24 29 36 61 36 10 0 20 9 23 21 5 17 2 20 -14 16 -24
-6 -26 19 -3 52 15 21 15 23 -5 38 -17 12 -19 18 -10 29 9 11 6 16 -12 23 -18
7 -27 5 -36 -6 -8 -10 -16 -12 -30 -5 -67 36 -102 44 -134 33 -18 -6 -47 -11
-65 -11 -19 0 -34 -4 -34 -10 0 -5 5 -10 11 -10 15 0 3 -48 -21 -81 -11 -15
-15 -31 -10 -39 8 -14 30 -5 30 12 0 17 52 53 87 59 45 8 41 -5 -7 -25 -28
-11 -40 -22 -40 -36 0 -11 -12 -38 -26 -60 -15 -22 -24 -43 -21 -46 3 -4 16 9
27 29 23 38 144 147 163 147 7 -1 -5 -15 -25 -33 -38 -32 -65 -91 -47 -102 16
-11 10 -38 -7 -31 -11 4 -18 -1 -22 -16 -3 -13 -23 -56 -44 -95 -21 -40 -35
-73 -31 -73 11 0 9 -46 -6 -112 -7 -32 -17 -58 -22 -58 -6 0 -7 9 -4 21 5 13
2 25 -6 29 -10 7 -9 17 4 52 20 52 21 65 5 82 -27 29 -78 -75 -78 -161 0 -17
-5 -35 -10 -38 -7 -5 -9 21 -6 78 4 65 11 97 30 136 29 57 32 83 12 100 -12
10 -11 19 5 63 10 29 17 53 15 55 -1 2 -15 -10 -29 -27 -32 -36 -37 -36 -61
-8 -19 21 -20 21 -30 3 -6 -10 -19 -27 -29 -37 -9 -10 -15 -18 -12 -18 2 0 -3
-19 -12 -42 -8 -24 -16 -56 -18 -73 -1 -16 -10 -47 -19 -67 -9 -21 -12 -38 -7
-38 5 0 11 10 14 22 6 22 6 22 25 3 26 -29 35 -57 20 -66 -7 -4 -9 -11 -5 -15
4 -4 16 1 27 11 19 18 20 17 20 -1 0 -11 -5 -25 -11 -31 -14 -14 -3 -33 18
-33 10 0 14 -6 10 -20 -6 -22 21 -100 35 -100 4 0 8 5 8 10 0 6 6 10 14 10 8
0 19 14 25 30 12 35 27 41 17 8 -4 -13 -11 -59 -16 -102 -7 -62 -6 -85 5 -106
9 -17 12 -41 8 -64 -5 -30 -3 -35 10 -31 21 9 30 -11 17 -36 -7 -11 -8 -24 -4
-27 4 -4 9 -1 11 6 11 29 21 9 12 -23 -12 -43 -4 -61 18 -43 14 11 15 10 10
-7 -6 -18 -27 -122 -27 -131 0 -2 7 -4 15 -4 10 0 15 -10 15 -26 0 -15 7 -32
15 -38 8 -6 15 -30 17 -54 2 -42 19 -69 36 -58 11 6 42 -30 42 -49 0 -8 5 -15
10 -15 14 0 12 24 -2 38 -8 8 -14 42 -15 80 -1 60 0 65 13 47 8 -10 14 -22 14
-27 0 -4 11 -8 25 -8 26 0 29 -7 19 -34 -4 -11 -13 -14 -30 -10 -20 5 -24 2
-24 -16 0 -16 4 -20 15 -16 8 3 15 1 15 -5 0 -6 11 2 24 18 21 24 26 26 41 13
13 -10 16 -24 12 -52 -5 -38 -5 -38 29 -38 32 0 33 2 22 20 -11 16 -10 23 5
37 16 16 17 16 17 -2 0 -17 2 -18 15 -4 12 12 14 21 6 42 -11 28 -5 61 9 52 5
-3 16 5 24 17 16 22 16 22 16 -17 0 -30 -3 -36 -12 -27 -7 7 -15 12 -19 12
-11 0 -7 -44 6 -52 6 -5 5 -11 -5 -18 -8 -5 -11 -10 -6 -10 5 0 3 -6 -3 -13
-14 -18 -2 -30 15 -16 10 8 16 5 25 -14 8 -18 17 -23 32 -19 16 4 19 2 14 -11
-3 -9 1 -21 10 -29 14 -11 16 -11 10 4 -8 23 4 29 26 13 18 -13 17 -14 -7 -31
-24 -15 -28 -15 -44 -1 -22 19 -38 22 -82 13 -21 -4 -53 -1 -80 7 -41 13 -44
17 -44 46 1 17 -3 31 -7 31 -5 0 -9 -8 -9 -17 0 -9 -7 -25 -16 -35 -19 -20
-23 -18 70 -46 56 -16 88 -42 49 -38 -36 2 -20 -38 25 -62 66 -37 43 -37 -39
-2 -109 47 -178 41 -236 -22 -28 -30 -56 -191 -42 -241 5 -17 9 -43 9 -56 0
-18 32 -58 118 -146 65 -66 134 -139 155 -162 20 -24 41 -43 45 -43 5 0 17 -9
27 -20 10 -11 24 -20 32 -20 7 0 13 -4 13 -10 0 -13 39 -33 80 -40 31 -5 37
-2 53 22 22 37 22 53 -5 96 l-21 35 22 18 c13 11 38 19 55 19 53 0 72 -35 39
-72 -13 -14 -14 -21 -5 -30 7 -7 12 -34 12 -60 0 -26 5 -48 10 -48 6 0 10 7
10 15 0 8 5 15 10 15 6 0 10 9 10 20 0 12 7 35 16 52 9 17 13 40 10 51 -3 14
2 30 17 45 l22 23 -20 37 c-11 20 -39 49 -62 65 -34 23 -45 38 -58 79 -8 29
-15 69 -15 90 0 21 -4 38 -10 38 -5 0 -25 24 -44 54 -19 30 -39 57 -44 60 -6
3 -36 -19 -67 -49 -32 -30 -61 -55 -65 -55 -4 0 -13 7 -20 15 -15 18 -33 20
-27 3 2 -7 -2 -28 -9 -45 -17 -44 -16 -133 3 -126 9 4 13 -6 13 -35 0 -22 6
-45 14 -52 17 -14 10 -40 -11 -40 -24 0 -71 117 -77 190 -2 36 -12 83 -21 105
-23 53 -29 115 -12 115 20 0 37 -22 37 -48 0 -21 2 -22 15 -12 13 10 15 9 16
-11 1 -13 1 -27 0 -31 -2 -13 8 -9 47 17 20 14 42 25 47 25 14 0 65 53 65 67
0 6 -13 23 -30 36 -38 32 -38 41 0 34 28 -6 70 -38 70 -54 0 -11 66 -63 79
-63 17 0 22 19 12 38 -7 13 -7 22 0 29 15 15 5 42 -28 78 -23 25 -28 39 -27
81 0 37 7 60 22 79 12 15 22 34 22 41 0 8 4 14 9 14 6 0 7 -15 4 -34 -5 -32
-4 -34 31 -40 19 -4 40 -14 46 -24 8 -12 13 -14 16 -4 3 6 12 12 20 12 18 0
18 7 -4 30 -13 14 -17 35 -16 97 0 43 4 97 8 121 6 35 11 41 22 32 24 -20 32
-3 22 45 -7 32 -6 50 1 59 12 14 5 46 -10 46 -5 0 -9 -4 -9 -8 0 -13 -29 -48
-30 -36 0 6 14 32 31 58 19 28 29 54 26 66 -3 11 -1 20 5 20 5 0 9 19 8 43 -4
58 -2 67 13 67 6 0 21 18 31 40 15 32 17 42 6 55 -10 12 -9 19 4 40 21 31 20
59 -1 76 -13 11 -17 11 -20 2 -3 -7 -9 -13 -14 -13 -6 0 4 21 22 46 26 38 30
52 25 82 -8 47 -8 45 3 185 5 65 12 121 15 124 12 12 16 -26 7 -67 -5 -23 -6
-51 -2 -62 6 -18 8 -18 21 -4 9 12 10 23 3 39 -13 29 -6 46 23 57 13 5 24 15
24 22 0 16 47 39 65 32 7 -3 34 6 60 20 25 14 57 26 71 26 15 0 35 12 53 33
16 18 49 43 74 55 25 12 50 29 57 37 7 8 21 15 31 15 21 0 25 20 7 38 -9 9 -9
12 0 12 7 0 12 -4 12 -9 0 -5 9 -7 20 -4 11 3 20 11 20 19 0 14 11 17 83 29
31 5 37 9 32 25 -3 10 -1 21 5 25 5 3 10 2 10 -3 0 -13 60 -9 84 4 15 9 18 19
13 50 -5 35 -5 37 8 20 22 -30 32 -11 38 75 3 45 10 86 17 93 9 8 10 5 6 -14
-13 -64 -15 -130 -6 -155 9 -24 13 -26 43 -19 17 5 44 8 60 8 16 -1 27 4 27
12 0 17 17 18 22 2 3 -8 14 -3 32 15 31 31 36 33 36 12 0 -8 6 -12 14 -9 8 3
26 -2 39 -11 20 -13 26 -13 30 -3 4 10 7 11 18 1 20 -19 39 -16 39 7 0 11 7
20 15 20 8 0 15 -4 15 -10 0 -5 -5 -10 -12 -10 -6 0 -8 -3 -5 -7 9 -9 46 26
63 59 8 16 21 28 29 28 8 0 15 7 15 16 0 9 7 14 18 13 23 -2 82 23 82 36 0 5
15 20 32 32 30 21 33 21 50 6 10 -8 34 -17 55 -19 52 -5 78 -27 158 -136 39
-53 93 -122 120 -153 28 -32 62 -71 77 -89 23 -27 26 -28 21 -8 -3 12 -9 22
-14 22 -5 0 -9 6 -9 13 -1 6 -11 25 -24 41 -14 16 -22 35 -19 41 2 7 -4 19
-14 26 -10 8 -25 23 -33 34 -15 19 -15 19 13 2 34 -22 34 -14 2 25 -14 16 -25
39 -25 50 0 12 -8 27 -17 34 -17 12 -17 14 -1 30 17 17 18 17 38 -1 11 -10 20
-13 20 -7 0 6 -15 22 -32 36 -24 19 -28 26 -15 26 20 0 22 11 5 28 -9 9 -8 12
6 12 13 0 16 5 11 18 -4 9 -10 36 -12 60 -3 23 -10 42 -14 42 -5 0 -9 15 -9
33 0 49 -13 54 -26 10 l-12 -38 -1 57 c-1 43 -9 73 -31 116 -16 33 -30 68 -30
79 0 30 -53 97 -114 145 -62 49 -98 68 -176 93 -51 16 -162 79 -220 123 -19
14 -48 20 -113 24 -49 3 -94 11 -100 17 -12 12 -14 12 -105 0z m241 -58 c26
-13 47 -27 47 -32 0 -14 -132 0 -158 17 -17 11 -27 13 -37 4 -10 -8 -14 -8
-17 2 -4 9 -9 10 -19 3 -20 -16 -109 -19 -109 -4 0 7 10 9 30 6 17 -4 30 -2
30 3 0 6 9 10 19 10 11 0 23 5 27 11 11 19 133 5 187 -20z m142 -51 c3 -5 2
-10 -4 -10 -5 0 -13 5 -16 10 -3 6 -2 10 4 10 5 0 13 -4 16 -10z m-183 -31
c29 -6 65 -18 81 -25 32 -17 37 -5 6 14 -12 7 -19 16 -16 19 11 10 128 -61
149 -89 11 -16 18 -31 15 -34 -3 -3 -30 11 -60 30 -30 19 -57 33 -60 30 -3 -3
-19 2 -36 10 -38 20 -51 20 -51 0 0 -8 4 -13 9 -9 6 3 31 -9 56 -27 52 -37 47
-47 -11 -21 -21 10 -52 18 -69 18 -18 0 -29 5 -28 12 2 6 -14 17 -35 24 -49
15 -63 29 -29 29 19 0 25 4 21 15 -7 18 -9 18 58 4z m-175 -80 c24 -10 47 -14
125 -22 9 -1 15 -4 12 -8 -2 -4 17 -20 43 -35 123 -71 253 -190 237 -215 -5
-8 -13 -4 -26 12 l-19 24 6 -25 c5 -21 1 -19 -27 15 -88 108 -182 175 -297
212 -42 13 -82 26 -89 28 -7 3 -10 9 -7 15 8 12 8 12 42 -1z m463 -24 c14 -16
10 -18 -14 -9 -9 3 -16 10 -16 15 0 14 16 11 30 -6z m90 -27 c0 -13 -23 -5
-28 10 -2 7 2 10 12 6 9 -3 16 -11 16 -16z m-324 -15 c-7 -7 -26 7 -26 19 0 6
6 6 15 -2 9 -7 13 -15 11 -17z m348 -8 c-4 -8 -11 -15 -16 -15 -6 0 -5 6 2 15
7 8 14 15 16 15 2 0 1 -7 -2 -15z m-186 -62 c18 -14 31 -28 28 -31 -8 -7 -104
59 -111 77 -6 15 21 0 83 -46z m19 -90 c-7 -6 -66 58 -66 72 0 6 16 -7 35 -28
20 -21 33 -41 31 -44z m-617 58 c0 -15 -37 -23 -70 -16 -19 4 -30 3 -30 -4 0
-13 -47 -15 -55 -2 -3 6 3 14 12 20 22 13 143 14 143 2z m80 -12 c0 -5 -4 -9
-10 -9 -5 0 -10 7 -10 16 0 8 5 12 10 9 6 -3 10 -10 10 -16z m-270 2 c0 -5
-42 -16 -92 -26 -51 -10 -132 -33 -179 -51 -47 -19 -100 -34 -118 -34 -38 0
-101 -25 -101 -39 0 -6 -10 -11 -22 -11 -13 -1 -42 -18 -66 -38 l-42 -38 29
-2 c16 -1 32 2 36 8 8 12 45 13 45 1 0 -17 -65 -90 -90 -101 -14 -5 -34 -24
-45 -40 -19 -28 -104 -100 -119 -100 -3 0 -6 9 -6 19 0 10 -7 21 -15 25 -27
10 -17 29 13 22 23 -5 24 -5 8 5 -10 6 -36 9 -57 6 -39 -5 -54 9 -21 19 49 16
72 27 72 35 0 14 -61 10 -109 -7 -24 -8 -46 -13 -48 -10 -10 10 9 26 31 26 12
0 26 4 31 9 6 4 25 13 44 20 27 9 37 8 44 -1 5 -8 10 -9 13 -3 14 33 23 39 37
27 8 -7 22 -10 31 -6 22 8 21 -12 -1 -22 -15 -6 -12 -8 12 -14 54 -11 75 18
48 66 -9 16 -9 24 -1 32 7 7 9 14 7 17 -7 7 -98 -24 -127 -43 -12 -8 -25 -12
-29 -8 -3 3 46 30 109 60 75 36 127 67 149 91 43 46 60 55 123 65 28 5 61 11
74 15 18 6 21 4 16 -10 -6 -16 -3 -17 32 -11 40 7 139 28 209 45 53 12 75 13
75 2z m390 5 c0 -3 -4 -8 -10 -11 -5 -3 -10 -1 -10 4 0 6 5 11 10 11 6 0 10
-2 10 -4z m480 -37 c0 -6 -4 -7 -10 -4 -5 3 -10 11 -10 16 0 6 5 7 10 4 6 -3
10 -11 10 -16z m-1490 1 c0 -6 -30 -10 -71 -10 -44 0 -68 4 -64 10 3 6 35 10
71 10 36 0 64 -4 64 -10z m50 0 c0 -12 -28 -25 -36 -17 -9 9 6 27 22 27 8 0
14 -5 14 -10z m-160 -30 c0 -5 -4 -10 -10 -10 -5 0 -10 5 -10 10 0 6 5 10 10
10 6 0 10 -4 10 -10z m50 -28 c0 -19 -39 -44 -57 -37 -17 8 -17 8 0 12 9 3 17
11 17 19 0 8 9 14 20 14 11 0 20 -4 20 -8z m-90 -12 c0 -5 -5 -10 -11 -10 -5
0 -7 5 -4 10 3 6 8 10 11 10 2 0 4 -4 4 -10z m1224 -14 c61 -26 36 -29 -50 -6
-104 27 -109 31 -44 27 30 -2 73 -11 94 -21z m-329 4 c-3 -5 -17 -10 -31 -10
-13 0 -24 5 -24 10 0 6 14 10 31 10 17 0 28 -4 24 -10z m1105 -30 c0 -25 -11
-51 -19 -46 -4 3 -5 21 -3 40 4 36 22 41 22 6z m-1699 -83 c-16 -16 -20 -5 -8
23 9 22 11 23 14 6 3 -10 0 -23 -6 -29z m14 -85 c-8 -8 -25 17 -25 38 0 9 6 6
16 -8 9 -13 13 -26 9 -30z m541 37 c4 -7 -11 -9 -52 -4 -77 10 -81 15 -11 15
31 0 59 -5 63 -11z m-966 -29 c0 -13 -20 -13 -40 0 -12 8 -9 10 13 10 15 0 27
-4 27 -10z m375 0 c3 -5 1 -10 -4 -10 -6 0 -11 5 -11 10 0 6 2 10 4 10 3 0 8
-4 11 -10z m118 -41 c-6 -6 -17 -8 -24 -3 -9 5 -8 9 7 14 23 9 31 3 17 -11z
m1687 1 c0 -5 -5 -10 -11 -10 -5 0 -7 5 -4 10 3 6 8 10 11 10 2 0 4 -4 4 -10z
m-1773 -47 c-9 -9 -20 -13 -24 -9 -4 4 1 14 11 22 25 18 35 8 13 -13z m-467
-20 c0 -8 13 -13 31 -13 20 0 29 -4 27 -12 -3 -9 -38 -15 -110 -18 -58 -3
-111 -10 -119 -16 -9 -8 -29 -9 -54 -5 -38 7 -39 8 -18 19 12 7 35 12 52 12
32 0 81 18 81 31 0 4 -10 5 -22 3 -21 -4 -21 -4 -3 4 31 14 135 10 135 -5z
m1820 -13 c0 -5 -5 -10 -11 -10 -5 0 -7 5 -4 10 3 6 8 10 11 10 2 0 4 -4 4
-10z m401 -20 c5 0 9 -5 9 -11 0 -15 -43 -7 -48 10 -3 10 0 12 12 8 10 -4 22
-7 27 -7z m-2036 -130 c-3 -5 -11 -10 -16 -10 -6 0 -7 5 -4 10 3 6 11 10 16
10 6 0 7 -4 4 -10z m26 -31 c-13 -11 -27 -17 -30 -13 -3 3 5 14 18 25 13 11
27 17 30 13 3 -3 -5 -14 -18 -25z m-91 -49 c0 -5 8 -10 17 -10 13 0 14 -3 6
-11 -9 -9 -16 -8 -27 4 -18 18 -20 27 -6 27 6 0 10 -4 10 -10z m-360 -120 c0
-5 -4 -10 -10 -10 -5 0 -10 5 -10 10 0 6 5 10 10 10 6 0 10 -4 10 -10z m130
-165 c-7 -8 -17 -15 -22 -15 -6 0 -5 7 2 15 7 8 17 15 22 15 6 0 5 -7 -2 -15z
m-110 -13 c0 -13 -12 -22 -22 -16 -10 6 -1 24 13 24 5 0 9 -4 9 -8z m49 -29
c-14 -24 -59 -57 -59 -44 0 9 56 61 66 61 2 0 -1 -8 -7 -17z m-108 -60 c-8
-15 -10 -15 -11 -2 0 17 10 32 18 25 2 -3 -1 -13 -7 -23z m-277 -34 c-19 -49
-34 -71 -34 -48 1 20 39 103 46 97 2 -3 -3 -25 -12 -49z m66 47 c0 -3 -4 -8
-10 -11 -5 -3 -10 -1 -10 4 0 6 5 11 10 11 6 0 10 -2 10 -4z m869 -111 c0 -26
-2 -27 -9 -10 -5 11 -8 45 -8 75 l1 55 8 -45 c4 -25 8 -58 8 -75z m-629 48 c0
-22 -17 -50 -25 -42 -5 6 14 59 22 59 1 0 3 -8 3 -17z m337 -65 c-3 -8 -6 -5
-6 6 -1 11 2 17 5 13 3 -3 4 -12 1 -19z m-197 -62 c0 -3 -4 -8 -10 -11 -5 -3
-10 -1 -10 4 0 6 5 11 10 11 6 0 10 -2 10 -4z m525 -78 c15 -36 13 -43 -15
-58 -18 -10 -19 -8 -14 22 l6 33 -25 -30 c-14 -16 -28 -27 -32 -23 -8 7 45 87
58 88 4 0 14 -15 22 -32z m-225 -32 c-6 -19 -18 -40 -26 -46 -19 -16 -18 -11
7 45 23 53 37 54 19 1z m-142 17 c-2 -9 -8 -18 -15 -20 -7 -3 -9 3 -6 16 6 25
26 28 21 4z m-356 -91 c-3 -23 -8 -29 -23 -25 -23 6 -24 12 -3 41 20 29 32 21
26 -16z m-72 6 c0 -7 -5 -20 -10 -28 -8 -12 -10 -9 -10 13 0 15 5 27 10 27 6
0 10 -6 10 -12z m631 -32 c12 7 11 -7 -1 -26 -13 -21 -35 2 -25 27 5 12 9 14
12 5 3 -6 9 -10 14 -6z m48 -28 c-8 -14 -14 -18 -17 -10 -4 13 17 46 25 38 3
-2 -1 -15 -8 -28z m-722 -40 c-3 -8 -6 -5 -6 6 -1 11 2 17 5 13 3 -3 4 -12 1
-19z m813 3 c0 -12 -20 -25 -27 -18 -7 7 6 27 18 27 5 0 9 -4 9 -9z m-105 -71
c-18 -39 -35 -53 -35 -27 0 18 40 80 47 73 3 -3 -2 -24 -12 -46z m-668 -78 c3
-30 2 -52 -4 -52 -15 0 -34 66 -27 95 9 38 23 18 31 -43z m63 -2 c-16 -31 -23
-19 -9 16 6 16 13 24 16 17 2 -7 -1 -22 -7 -33z m215 -109 c3 -5 1 -12 -5 -16
-5 -3 -10 1 -10 9 0 18 6 21 15 7z m-205 -130 c0 -22 -4 -42 -10 -46 -5 -3 -8
13 -7 40 2 55 17 60 17 6z m190 2 c20 -18 25 -39 14 -67 -11 -30 -24 -16 -24
25 0 32 -3 40 -15 36 -15 -7 -29 6 -18 17 10 10 21 7 43 -11z m420 -33 c0 -5
-5 -10 -11 -10 -5 0 -7 5 -4 10 3 6 8 10 11 10 2 0 4 -4 4 -10z m-540 -95 c0
-8 -4 -15 -10 -15 -5 0 -10 7 -10 15 0 8 5 15 10 15 6 0 10 -7 10 -15z m60
-10 c0 -8 -4 -15 -10 -15 -5 0 -10 7 -10 15 0 8 5 15 10 15 6 0 10 -7 10 -15z
m70 5 c0 -5 -2 -10 -4 -10 -3 0 -8 5 -11 10 -3 6 -1 10 4 10 6 0 11 -4 11 -10z
m34 -88 c-4 -9 -8 -19 -9 -22 -8 -32 -18 -49 -25 -45 -7 4 12 74 27 99 10 16
16 -12 7 -32z m256 -38 c0 -8 -4 -12 -10 -9 -5 3 -10 10 -10 16 0 5 5 9 10 9
6 0 10 -7 10 -16z m80 -58 c0 -14 -4 -28 -10 -31 -6 -4 -10 7 -10 24 0 17 5
31 10 31 6 0 10 -11 10 -24z m-130 -106 c0 -5 -5 -10 -11 -10 -5 0 -7 5 -4 10
3 6 8 10 11 10 2 0 4 -4 4 -10z m-124 -625 c4 -9 11 -15 18 -14 22 4 46 -13
46 -33 0 -10 11 -29 25 -42 29 -27 31 -36 8 -36 -21 0 -136 117 -128 130 9 15
25 12 31 -5z"/>
<path d="M2175 5100 c-3 -5 -1 -10 4 -10 6 0 11 5 11 10 0 6 -2 10 -4 10 -3 0
-8 -4 -11 -10z"/>
<path d="M2042 5019 c2 -6 8 -10 13 -10 5 0 11 4 13 10 2 6 -4 11 -13 11 -9 0
-15 -5 -13 -11z"/>
<path d="M2885 5710 l-20 -9 20 1 c11 0 31 4 45 8 l25 8 -25 0 c-14 0 -34 -3
-45 -8z"/>
<path d="M2340 5529 c0 -5 5 -7 10 -4 6 3 10 8 10 11 0 2 -4 4 -10 4 -5 0 -10
-5 -10 -11z"/>
<path d="M2470 5500 c-8 -5 -12 -12 -9 -15 4 -3 12 1 19 10 14 17 11 19 -10 5z"/>
<path d="M2070 5410 c-13 -8 -13 -10 2 -10 9 0 20 5 23 10 8 13 -5 13 -25 0z"/>
<path d="M3980 5347 c0 -15 31 -69 37 -63 3 3 -4 20 -16 38 -11 18 -21 29 -21
25z"/>
<path d="M1365 4814 c-16 -25 -16 -25 4 -14 12 6 21 17 21 25 0 21 -5 19 -25
-11z"/>
<path d="M4095 4820 c3 -5 8 -10 11 -10 2 0 4 5 4 10 0 6 -5 10 -11 10 -5 0
-7 -4 -4 -10z"/>
<path d="M1350 4717 c-13 -7 -34 -28 -47 -47 -12 -19 -28 -42 -36 -51 -14 -16
-47 -123 -47 -150 1 -8 8 0 17 16 9 17 19 32 22 35 3 3 17 30 31 60 14 30 44
74 67 97 50 49 47 67 -7 40z"/>
<path d="M1453 4699 c14 -8 22 -8 30 0 8 8 3 11 -18 11 -26 -1 -28 -2 -12 -11z"/>
<path d="M1372 4660 l-23 -19 24 -6 c14 -4 35 -2 46 5 14 7 27 8 40 1 10 -6
21 -7 25 -4 3 4 -15 15 -41 25 -27 10 -48 18 -48 18 0 -1 -10 -9 -23 -20z"/>
<path d="M1600 4642 c0 -5 11 -14 25 -20 29 -14 44 2 16 17 -24 13 -41 14 -41
3z"/>
<path d="M1779 4609 c13 -11 26 -17 29 -14 8 8 -20 35 -37 35 -12 -1 -11 -5 8
-21z"/>
<path d="M1306 4549 c-32 -38 -34 -60 -3 -31 13 12 30 22 38 22 23 0 30 11 18
27 -16 19 -24 17 -53 -18z"/>
<path d="M1284 4476 c-10 -8 -17 -17 -14 -19 3 -3 14 1 24 9 11 7 17 16 15 19
-3 3 -14 -2 -25 -9z"/>
<path d="M1179 4432 c-9 -30 -9 -50 -2 -74 9 -27 11 -29 12 -10 1 12 8 39 16
59 14 32 14 39 1 51 -13 13 -16 9 -27 -26z"/>
<path d="M4208 4406 c-10 -7 -18 -20 -18 -29 0 -17 -82 -53 -99 -42 -6 3 -11
1 -11 -4 0 -6 -9 -11 -21 -11 -11 0 -29 -5 -40 -10 -13 -7 -25 -7 -38 -1 -24
13 -65 -24 -42 -38 9 -6 10 -11 2 -15 -6 -4 -11 -20 -11 -36 0 -17 -7 -33 -17
-39 -17 -9 -17 -10 0 -16 25 -10 21 -28 -5 -19 -21 6 -22 5 -8 -11 10 -12 15
-42 15 -92 l0 -75 49 -45 c49 -44 49 -44 70 -25 12 11 39 29 61 40 22 12 34
21 28 22 -23 0 -14 26 13 39 22 10 28 9 39 -5 11 -16 16 -15 74 4 75 25 113
21 159 -20 33 -28 52 -35 52 -19 0 5 -7 14 -16 22 -10 8 -13 21 -9 36 3 13 2
29 -2 36 -4 7 -8 19 -8 27 -2 45 -28 109 -47 113 -11 3 -21 0 -25 -9 -8 -21
-136 -20 -157 2 -23 22 -9 37 28 30 26 -5 28 -4 15 7 -13 10 -13 17 -5 38 20
47 65 85 49 42 -5 -14 -1 -13 19 5 19 17 27 20 31 10 3 -10 8 -10 16 -2 10 9
6 16 -15 33 -15 11 -34 21 -44 21 -9 0 -23 11 -30 25 -15 28 -27 31 -52 11z
m12 -356 c0 -5 -4 -10 -10 -10 -5 0 -10 5 -10 10 0 6 5 10 10 10 6 0 10 -4 10
-10z"/>
<path d="M1397 4393 c-13 -12 -8 -55 6 -51 6 3 12 17 12 31 1 27 -5 33 -18 20z"/>
<path d="M1860 4374 c0 -8 5 -12 10 -9 6 4 8 11 5 16 -9 14 -15 11 -15 -7z"/>
<path d="M3721 4318 c-1 -11 27 -117 34 -128 3 -5 14 -14 24 -19 15 -9 17 -6
16 17 -1 15 -13 43 -26 63 -13 20 -29 45 -36 55 -6 11 -12 16 -12 12z"/>
<path d="M3565 4190 c-10 -11 -30 -20 -44 -20 -14 0 -41 -9 -59 -20 -18 -11
-43 -20 -57 -20 -13 0 -26 -4 -29 -9 -3 -5 -19 -7 -35 -5 -16 2 -42 -3 -57
-10 -22 -12 -32 -12 -64 -1 -33 12 -39 11 -54 -3 -13 -13 -43 -18 -124 -23
-111 -6 -167 -24 -212 -69 -32 -32 -24 -39 33 -33 52 5 54 5 53 -18 -1 -20 4
-25 32 -27 18 -2 39 2 47 8 9 7 15 8 19 1 4 -6 13 -8 21 -4 8 3 23 2 33 -3 9
-4 26 -8 37 -9 41 -2 145 -28 145 -36 0 -5 -5 -9 -12 -9 -6 0 -19 -6 -27 -13
-24 -21 -113 -56 -161 -63 -40 -7 -42 -6 -35 15 8 27 -4 27 -45 -1 -45 -31
-48 -45 -8 -41 18 1 27 0 21 -3 -7 -3 -13 -14 -13 -25 0 -12 -7 -19 -20 -19
-11 0 -20 -4 -20 -10 0 -5 -6 -10 -12 -10 -7 0 -26 -17 -43 -37 -22 -29 -30
-48 -30 -81 0 -35 -3 -42 -17 -39 -10 3 -18 -3 -21 -14 -6 -22 -37 -26 -37 -4
0 8 -9 15 -20 15 -11 0 -20 7 -20 15 0 18 -20 20 -21 3 0 -7 -5 -3 -11 10 -14
29 -32 28 -24 -1 3 -14 -1 -32 -9 -43 -19 -25 -19 -34 1 -34 11 0 15 -8 12
-27 -2 -22 1 -28 17 -29 11 -1 24 -2 29 -3 4 0 -4 -17 -18 -36 -15 -19 -23
-35 -19 -35 4 0 33 15 65 34 31 19 59 32 61 29 10 -9 68 28 136 87 42 36 71
55 74 47 2 -7 9 -1 17 13 16 30 31 41 48 35 6 -2 12 2 12 9 0 7 7 19 15 26 9
7 13 20 10 28 -4 10 -1 12 12 7 10 -4 28 -10 41 -12 33 -8 27 -30 -13 -44 -39
-14 -46 -29 -15 -29 11 0 20 -4 20 -9 0 -12 -63 -41 -90 -41 -12 0 -37 -7 -55
-15 -28 -14 -39 -28 -63 -78 -4 -7 34 -2 68 10 8 3 29 6 45 8 17 1 42 6 58 10
21 6 27 4 27 -9 0 -9 3 -16 7 -16 14 0 189 103 223 132 60 50 90 84 90 105 0
15 -26 18 -35 3 -8 -12 -25 -13 -25 -1 0 11 42 38 66 43 13 2 19 -2 18 -14 -1
-10 5 -18 13 -18 13 0 13 -3 3 -15 -7 -8 -9 -15 -5 -15 4 0 13 7 20 17 13 18
35 10 35 -13 0 -8 9 -14 20 -14 15 0 20 7 21 28 0 15 3 21 6 15 6 -17 43 -16
66 1 9 7 17 24 17 38 0 13 5 29 12 36 9 9 6 17 -12 37 -13 14 -19 25 -13 25
15 0 24 168 11 213 -8 27 -8 44 0 62 9 19 9 25 -1 25 -6 0 -21 14 -32 30 -24
36 -72 41 -100 10z m-168 -497 c6 -17 -57 -73 -82 -73 -11 0 -41 -8 -67 -17
-26 -9 -50 -14 -53 -11 -11 10 19 48 37 48 26 0 22 17 -4 24 -15 3 -19 9 -13
15 27 26 175 37 182 14z"/>
<path d="M1429 4134 c-5 -15 -8 -29 -5 -31 2 -2 8 10 14 26 13 38 5 41 -9 5z"/>
<path d="M1180 3959 c0 -85 8 -139 21 -139 15 0 10 162 -6 190 -13 23 -14 20
-15 -51z"/>
<path d="M4255 3930 c3 -5 8 -10 11 -10 2 0 4 5 4 10 0 6 -5 10 -11 10 -5 0
-7 -4 -4 -10z"/>
<path d="M2991 3911 c-11 -7 -10 -11 7 -20 26 -14 59 -14 67 -1 4 6 -5 10 -19
10 -14 0 -26 5 -26 10 0 12 -10 13 -29 1z"/>
<path d="M2837 3889 c-7 -25 2 -30 24 -16 24 15 24 23 0 30 -13 3 -21 -1 -24
-14z"/>
<path d="M4078 3893 c-4 -16 -11 -20 -27 -16 -12 3 -21 1 -21 -4 0 -18 66 -73
87 -73 12 0 42 -11 66 -23 60 -32 88 -39 106 -24 11 9 15 9 19 -1 3 -10 9 -10
27 2 13 9 30 14 37 11 15 -5 81 92 68 100 -5 3 -21 3 -36 -1 -25 -7 -26 -5
-20 21 l7 27 -48 -7 c-49 -8 -191 -7 -205 1 -4 3 -5 -1 -2 -9 3 -9 -2 -13 -18
-13 -13 1 -26 8 -29 15 -4 11 -7 9 -11 -6z"/>
<path d="M1231 3843 c1 -32 2 -34 8 -13 6 21 8 22 14 8 3 -10 9 -40 13 -68 4
-27 11 -50 16 -50 11 0 0 97 -16 129 -19 41 -36 38 -35 -6z"/>
<path d="M2833 3826 c-33 -32 -47 -60 -18 -36 8 6 23 9 33 6 15 -5 21 -1 26
16 15 56 5 59 -41 14z"/>
<path d="M1308 3775 c-8 -9 1 -66 13 -79 5 -6 9 0 8 15 -1 36 -13 72 -21 64z"/>
<path d="M1340 3752 c0 -27 10 -52 21 -52 5 0 5 10 0 23 -5 12 -9 26 -9 30 -1
19 -12 19 -12 -1z"/>
<path d="M2750 3759 c0 -5 5 -7 10 -4 6 3 10 8 10 11 0 2 -4 4 -10 4 -5 0 -10
-5 -10 -11z"/>
<path d="M2835 3736 c-55 -20 -108 -77 -85 -91 6 -3 15 5 22 19 6 14 17 26 25
26 7 0 16 6 19 14 3 8 13 12 23 9 11 -3 21 2 25 13 9 22 6 23 -29 10z"/>
<path d="M2700 3620 c0 -5 5 -10 10 -10 6 0 10 5 10 10 0 6 -4 10 -10 10 -5 0
-10 -4 -10 -10z"/>
<path d="M1320 3590 c0 -5 5 -10 10 -10 6 0 10 5 10 10 0 6 -4 10 -10 10 -5 0
-10 -4 -10 -10z"/>
<path d="M3320 3450 c0 -5 5 -10 10 -10 6 0 10 5 10 10 0 6 -4 10 -10 10 -5 0
-10 -4 -10 -10z"/>
<path d="M4390 3436 c0 -23 -22 -31 -32 -12 -8 14 -12 15 -24 5 -17 -14 -103
-19 -121 -6 -6 4 -14 4 -17 -2 -4 -6 -20 -8 -37 -4 -20 4 -35 0 -47 -10 -9 -9
-37 -25 -62 -36 -41 -19 -64 -34 -139 -89 -13 -9 -41 -34 -61 -54 -41 -42 -59
-47 -83 -20 -13 15 -16 33 -13 86 3 57 8 72 31 96 15 16 24 33 21 39 -11 18
-40 13 -54 -9 -7 -11 -21 -20 -32 -20 -11 0 -20 -6 -20 -14 0 -8 -6 -16 -14
-19 -10 -4 -16 -30 -20 -84 -4 -43 -15 -107 -26 -143 -39 -135 -42 -149 -37
-177 4 -15 4 -22 1 -15 -3 6 -11 12 -17 12 -6 0 -4 -8 6 -17 23 -23 32 -11 52
67 20 79 41 130 52 130 5 0 14 -19 20 -42 16 -61 52 -80 144 -77 40 1 74 -2
77 -8 4 -6 18 -14 32 -18 20 -6 23 -5 13 6 -20 20 -16 25 19 23 19 -1 42 6 59
18 15 12 35 18 44 15 9 -4 24 -2 34 5 10 6 30 8 45 4 21 -5 26 -11 21 -26 -8
-25 10 -26 24 -2 9 14 10 15 11 1 0 -9 12 -21 26 -28 15 -6 24 -14 21 -17 -3
-3 -14 -1 -25 5 -25 14 -33 5 -21 -26 12 -33 12 -36 -6 -29 -8 3 -15 0 -16 -7
0 -7 -7 2 -14 18 -12 26 -14 27 -15 8 0 -12 -5 -25 -12 -29 -7 -5 -5 -11 8
-21 15 -11 16 -15 5 -22 -7 -5 -10 -14 -7 -20 4 -6 3 -11 -2 -11 -5 0 -15 13
-22 29 -13 33 -55 72 -72 68 -7 -1 -17 -11 -23 -22 -6 -11 -15 -20 -20 -21
-25 -2 -45 -18 -45 -35 0 -18 37 -46 47 -36 3 3 19 -10 35 -29 17 -19 29 -36
27 -39 -2 -2 -34 19 -71 47 -70 52 -108 58 -108 18 0 -11 -12 -27 -27 -37 -45
-27 -83 -69 -94 -103 l-12 -32 -20 32 c-19 30 -21 31 -33 15 -11 -15 -16 -16
-30 -5 -14 12 -15 11 -12 -6 2 -14 -3 -19 -22 -19 -20 0 -25 -6 -26 -25 -2
-45 -4 -51 -13 -45 -12 7 -51 -43 -51 -66 0 -12 7 -19 20 -19 l20 0 -20 -40
c-24 -47 -32 -51 -24 -11 4 19 1 38 -9 52 -14 20 -14 24 9 60 13 21 24 43 24
49 0 17 -14 11 -28 -11 -18 -28 -27 -16 -23 32 2 37 -11 69 -29 69 -13 0 -19
-39 -7 -43 8 -2 5 -10 -6 -22 -15 -14 -16 -20 -5 -26 9 -7 10 -11 2 -16 -27
-18 -33 -182 -7 -190 6 -2 9 -12 6 -21 -6 -25 15 -74 29 -70 7 3 15 14 18 26
5 20 6 19 39 -10 26 -24 31 -32 20 -39 -9 -6 -18 -3 -26 8 -7 9 -15 14 -17 12
-5 -4 3 -20 31 -66 7 -12 8 -24 2 -34 -7 -11 -9 -10 -9 5 0 17 -26 45 -42 46
-4 0 -3 -11 3 -24 9 -18 7 -31 -6 -59 -9 -19 -15 -41 -14 -49 1 -7 -4 -25 -11
-40 -12 -25 -11 -30 5 -48 10 -11 23 -20 29 -19 28 3 36 -3 36 -31 0 -22 4
-28 15 -24 19 8 19 -10 0 -26 -8 -7 -12 -16 -9 -21 9 -15 32 -10 38 9 3 9 3 4
1 -13 -9 -67 -18 -100 -28 -107 -8 -4 -7 -18 0 -43 7 -20 9 -44 6 -52 -5 -12
-1 -14 18 -8 20 6 22 5 12 -6 -18 -18 -16 -26 8 -32 16 -4 19 -11 14 -26 -4
-15 -2 -21 9 -21 9 0 13 6 10 15 -5 12 -1 12 25 -1 24 -12 30 -21 26 -35 -4
-10 -2 -19 3 -19 5 0 12 9 15 19 3 14 11 18 26 14 26 -7 27 -18 4 -28 -15 -5
-11 -9 17 -21 31 -13 36 -13 46 1 16 21 27 19 19 -4 -5 -16 5 -24 48 -46 32
-15 73 -26 97 -27 24 0 44 -6 46 -13 4 -9 14 -10 42 -3 20 5 56 10 80 12 24 1
46 7 50 13 4 6 25 15 47 19 22 4 46 16 54 26 7 11 19 17 27 14 8 -3 14 1 14 9
0 9 6 12 15 9 8 -4 15 -2 15 4 0 16 67 51 88 45 11 -2 23 0 26 6 4 6 17 11 30
11 12 0 27 5 34 12 15 15 15 12 -4 -63 -15 -60 -80 -229 -99 -259 -5 -8 -10
-19 -11 -25 -4 -31 -18 -54 -37 -59 -34 -9 -40 -7 -33 10 4 10 1 14 -6 12 -20
-7 -19 -23 3 -47 20 -21 21 -24 5 -33 -9 -5 -14 -13 -11 -19 7 -11 -42 -32
-56 -23 -5 3 -9 12 -9 21 0 13 3 13 15 3 22 -19 18 3 -7 35 -21 27 -21 28 -3
41 10 7 23 15 29 18 7 3 6 8 -4 15 -11 8 -17 6 -22 -9 -4 -11 -14 -20 -23 -20
-24 0 -8 48 33 98 31 38 34 60 4 30 -9 -9 -12 -8 -12 4 0 18 24 41 33 31 4 -3
7 -2 8 3 0 5 2 28 5 52 2 23 2 42 -1 42 -2 0 -35 -20 -72 -44 -37 -24 -91 -55
-119 -69 -45 -23 -51 -24 -60 -9 -7 11 -24 16 -50 15 -35 -1 -37 0 -20 13 29
21 11 29 -20 10 -14 -10 -23 -20 -20 -24 6 -5 -42 -42 -56 -42 -4 0 -5 6 -2
14 5 13 0 13 -32 5 -20 -6 -44 -18 -52 -26 -15 -14 -19 -14 -104 4 -16 3 -28
9 -28 14 0 17 -21 9 -43 -16 -16 -19 -26 -22 -37 -15 -10 6 -11 10 -2 10 6 0
12 4 12 9 0 14 -52 20 -71 8 -10 -6 -22 -8 -26 -4 -4 5 -1 12 6 16 7 5 9 11 4
14 -5 3 -31 -21 -58 -54 -27 -32 -55 -59 -62 -59 -23 0 -14 17 22 44 32 25 47
56 26 56 -12 0 -32 -26 -25 -33 3 -3 -4 -11 -16 -17 -12 -6 -28 -27 -36 -45
-17 -43 -17 -46 0 -39 11 4 13 0 9 -18 -4 -21 -2 -20 25 10 16 17 32 32 36 32
14 0 4 -17 -34 -58 -36 -39 -44 -43 -42 -21 1 4 -8 5 -18 2 -28 -8 -26 -49 3
-59 12 -4 27 -7 33 -6 7 1 14 -5 18 -13 3 -9 2 -13 -4 -10 -6 4 -22 -7 -36
-24 -32 -38 -48 -40 -28 -4 19 38 18 45 -5 31 -16 -10 -25 -9 -45 2 -14 7 -29
10 -33 7 -3 -4 -12 -2 -20 5 -16 13 -31 2 -16 -13 6 -6 8 -19 6 -30 -4 -14
-11 -18 -26 -13 -15 5 -19 3 -14 -9 3 -9 -1 -21 -9 -27 -10 -9 -14 -9 -14 -1
0 24 -20 9 -34 -24 -8 -19 -19 -35 -23 -34 -22 4 -33 -3 -33 -21 0 -11 4 -20
9 -20 5 0 13 -9 16 -21 7 -21 26 -22 33 -1 2 7 -2 10 -12 6 -12 -5 -15 -2 -10
10 14 38 46 2 48 -54 0 -31 4 -39 16 -35 9 4 7 -2 -6 -17 -12 -13 -24 -31 -28
-42 -4 -13 -10 -15 -19 -8 -6 5 -25 9 -40 8 -15 -1 -33 4 -39 11 -6 7 -19 13
-28 13 -29 0 -50 11 -50 26 0 8 -10 14 -24 14 -13 0 -27 7 -30 16 -3 9 -12 14
-19 11 -8 -3 -18 -2 -23 1 -16 11 -64 78 -64 89 0 6 -21 32 -48 59 -74 77
-241 284 -270 336 -15 26 -31 47 -37 47 -5 0 -28 -22 -50 -49 -22 -27 -43 -49
-47 -49 -21 -2 -3 28 42 74 l51 51 -46 125 c-58 158 -60 161 -84 130 -24 -31
-41 -88 -41 -136 l0 -39 32 42 c18 23 36 42 40 42 8 0 12 -19 11 -47 -1 -7 4
-13 9 -13 7 0 6 -5 -1 -13 -6 -8 -8 -16 -6 -19 3 -3 -6 -27 -21 -54 -40 -74
-36 -113 20 -214 114 -202 309 -422 502 -565 67 -49 163 -123 214 -162 74 -59
95 -71 110 -63 19 10 31 4 24 -14 -4 -11 242 -97 277 -96 9 0 22 -7 29 -15 7
-8 18 -15 24 -15 6 0 38 -20 71 -45 33 -25 64 -45 70 -45 24 0 76 40 135 104
81 88 151 152 243 220 39 29 97 83 127 120 193 233 398 756 377 963 -5 44 -2
55 18 77 13 14 25 31 27 38 4 10 8 10 19 1 12 -10 21 -5 46 25 44 52 81 103
92 130 6 12 18 22 27 22 13 0 15 8 12 37 -3 21 1 57 8 79 8 28 10 55 4 80 -5
21 -7 41 -4 45 2 4 -3 26 -11 49 -8 23 -15 67 -15 97 0 47 -4 59 -29 84 -26
26 -27 30 -13 38 16 9 16 11 0 28 -11 10 -18 12 -18 5 0 -6 -7 -9 -15 -6 -8 4
-15 10 -15 15 0 4 7 6 15 3 19 -8 19 6 0 33 -8 12 -12 28 -9 36 4 11 -4 14
-36 12 -39 -2 -71 -15 -37 -15 10 0 17 -4 17 -10 0 -5 8 -6 17 -3 15 6 16 5 3
-9 -8 -8 -21 -13 -29 -10 -9 3 -12 1 -7 -7 4 -6 15 -10 23 -9 9 2 18 -3 20 -9
3 -8 -4 -13 -19 -13 l-23 0 25 -21 c24 -20 24 -20 3 -14 -28 8 -32 -19 -5 -34
9 -6 13 -11 7 -11 -5 0 -3 -4 5 -10 24 -15 1 -25 -30 -13 -25 9 -30 9 -30 -3
0 -8 -10 -14 -26 -14 -20 0 -25 4 -20 16 3 8 -1 26 -10 39 -15 23 -15 25 0 31
9 3 16 11 16 16 0 6 -7 7 -16 4 -8 -3 -25 -1 -37 6 -20 10 -21 10 -8 -5 8 -10
12 -31 9 -53 -3 -29 -1 -35 13 -31 12 3 19 -3 23 -24 8 -42 66 -93 66 -59 0 6
-7 10 -15 10 -21 0 -19 18 3 23 30 9 82 6 82 -4 0 -5 -4 -9 -10 -9 -5 0 -10
-7 -10 -16 0 -11 -5 -14 -16 -10 -14 5 -15 4 -4 -8 6 -9 17 -14 23 -13 6 1 13
-8 15 -20 2 -13 8 -23 13 -23 5 0 9 -9 9 -19 0 -18 -2 -19 -30 -5 -17 9 -30
23 -30 34 0 14 -42 40 -66 40 -7 0 14 -55 22 -55 5 0 21 -9 37 -19 l27 -18
-22 -21 -23 -20 40 7 40 7 -25 -20 c-20 -16 -23 -22 -12 -33 10 -10 14 -10 22
2 5 8 12 11 16 7 4 -4 0 -15 -9 -25 -26 -29 -22 -45 10 -37 26 6 27 5 12 -12
-9 -10 -14 -25 -11 -33 5 -13 3 -13 -13 0 -17 14 -18 13 -12 -17 4 -19 2 -33
-3 -33 -6 0 -10 5 -10 11 0 8 -4 8 -12 1 -20 -15 -43 0 -43 28 0 16 -6 26 -17
28 -15 3 -17 -2 -11 -30 8 -47 22 -70 38 -65 17 7 35 -12 35 -38 0 -12 5 -26
12 -33 9 -9 9 -12 1 -12 -7 0 -15 5 -18 11 -12 18 -57 31 -69 19 -5 -5 -23
-10 -38 -10 -34 0 -49 -27 -25 -45 19 -14 23 -50 6 -61 -8 -4 -9 0 -4 15 4 14
2 21 -7 21 -19 0 -38 -21 -38 -41 0 -10 -4 -20 -9 -23 -10 -7 -8 35 3 52 13
22 -11 50 -39 45 -18 -4 -25 -1 -25 10 0 8 -9 17 -20 20 -20 5 -28 27 -10 27
18 0 10 39 -14 67 -23 27 -25 27 -43 11 -13 -12 -23 -14 -29 -8 -7 7 -16 4
-29 -10 -28 -30 -39 -24 -14 9 17 23 19 32 10 50 -12 21 -31 29 -31 12 0 -5
-16 -18 -36 -30 l-35 -21 22 39 c18 33 20 43 9 56 -7 8 -21 15 -32 15 -15 0
-19 6 -16 28 2 19 9 27 23 27 14 0 22 10 28 38 10 42 21 47 32 15 6 -21 8 -20
15 12 5 19 18 42 29 51 13 11 19 24 15 36 -5 17 -4 16 10 -1 12 -15 16 -16 16
-5 0 8 4 20 9 28 8 12 13 12 35 -3 14 -9 26 -12 26 -6 0 5 -11 17 -25 26 -14
9 -25 22 -25 29 0 7 -5 15 -11 17 -7 2 -7 12 1 32 13 35 6 44 -20 28 -26 -16
-31 -15 -24 3 8 20 -9 19 -28 -2 -31 -36 -39 -62 -28 -84 7 -11 9 -23 6 -26
-3 -3 -12 9 -20 28 -13 30 -13 36 1 52 15 15 15 19 0 35 -10 10 -17 29 -16 43
1 23 1 23 11 -3 10 -29 22 -35 33 -18 3 6 15 10 25 10 27 0 36 20 11 27 -22 5
-29 23 -10 23 27 0 47 -20 42 -42 -5 -21 -3 -20 22 7 17 20 28 26 31 17 3 -7
15 -17 25 -23 18 -9 19 -8 7 10 -7 12 -16 21 -20 21 -4 0 -6 9 -5 20 1 23 8
25 25 8 7 -7 12 -8 12 -3 0 4 9 0 20 -10 11 -10 20 -25 20 -33 0 -11 3 -12 13
-4 7 6 23 9 35 5 31 -8 59 4 44 19 -7 7 -12 22 -12 34 0 28 -19 42 -31 23 -6
-11 -11 -11 -21 -1 -6 6 -22 12 -35 12 -14 0 -23 6 -23 15 0 19 -9 19 -78 -1
-64 -18 -113 -41 -125 -58 -6 -8 -10 -8 -13 1 -7 15 -50 0 -81 -29 -12 -12
-27 -17 -34 -13 -7 5 -10 4 -5 -3 3 -6 2 -13 -4 -17 -5 -3 -10 1 -10 9 0 9 -4
16 -10 16 -13 0 -13 -6 1 -31 8 -15 7 -24 -3 -36 -10 -13 -10 -17 0 -20 6 -3
12 -9 12 -15 0 -5 -9 -6 -20 -3 -23 7 -26 -6 -7 -36 10 -17 9 -22 -6 -34 -13
-9 -15 -15 -6 -21 7 -4 17 0 24 10 11 15 13 14 17 -8 3 -14 -1 -31 -10 -40
-20 -19 -18 -87 3 -98 8 -5 15 -18 15 -28 0 -10 5 -22 10 -25 6 -3 10 -11 10
-17 0 -7 -6 -6 -15 2 -8 7 -15 18 -15 26 0 9 -10 11 -35 7 -36 -6 -51 11 -17
19 14 4 16 14 14 56 -4 56 -16 61 -27 11 -5 -23 -11 -28 -25 -24 -12 4 -26 -4
-43 -25 -14 -16 -29 -30 -33 -30 -4 0 -16 -7 -26 -17 -12 -11 -18 -12 -18 -3
0 7 -6 10 -15 6 -8 -3 -21 -9 -29 -12 -11 -4 -14 2 -14 25 1 17 5 28 10 25 5
-4 16 3 24 15 8 12 22 21 30 21 8 0 13 4 10 9 -10 15 -55 9 -72 -10 -9 -11
-26 -19 -36 -19 -28 0 -58 -18 -58 -36 0 -11 6 -14 23 -8 21 6 21 6 5 -13 -10
-11 -18 -24 -18 -30 0 -6 -7 -13 -15 -17 -17 -6 -20 5 -4 21 8 8 8 13 0 17
-15 10 -14 42 3 69 7 12 17 35 20 51 6 26 5 28 -8 17 -14 -12 -15 -10 -10 15
3 16 6 38 7 49 3 27 42 62 78 70 17 4 40 17 53 30 13 13 41 27 62 31 42 7 109
54 79 54 -33 0 -7 24 66 62 40 21 75 42 77 48 2 5 10 10 17 10 7 0 15 5 17 10
5 15 159 79 228 96 108 26 184 33 196 18 6 -8 20 -14 30 -15 11 0 13 -3 7 -6
-17 -6 -16 -28 2 -43 8 -7 15 -24 15 -38 0 -37 35 -70 66 -64 17 3 23 9 20 19
-3 8 -6 24 -6 34 0 16 -5 19 -20 14 -15 -5 -20 -2 -20 10 0 11 5 15 15 12 27
-11 25 10 -5 42 -29 30 -34 42 -30 70 1 8 -4 17 -11 22 -10 6 -10 12 4 27 10
11 17 35 17 63 0 24 5 63 10 87 7 30 7 47 -2 61 -9 15 -9 23 2 36 12 15 12 19
0 29 -21 16 -24 56 -5 56 9 0 18 -7 21 -15 11 -26 23 -16 15 13 -5 18 -13 26
-25 24 -10 -2 -28 9 -42 25 -16 18 -24 23 -24 13 -1 -12 -3 -12 -14 3 -7 9
-18 17 -25 17 -10 0 -15 13 -12 33 0 4 -6 7 -15 7 -10 0 -14 5 -10 15 3 9 -1
18 -9 22 -9 3 -14 13 -13 22 2 10 -5 17 -21 19 -13 2 -26 12 -28 23 -3 12 -14
19 -29 19 -28 0 -74 20 -74 32 0 4 -7 8 -15 8 -8 0 -15 -6 -15 -14z m123 -208
c49 -51 95 -106 103 -123 7 -16 17 -37 22 -45 37 -64 43 -96 12 -62 -11 12
-20 26 -20 32 0 11 -13 13 -23 3 -4 -3 -2 -12 4 -19 6 -8 9 -20 6 -28 -3 -7 0
-19 6 -25 8 -8 7 -11 -6 -11 -9 0 -18 -4 -18 -10 -2 -14 -5 -22 -14 -43 -4
-11 -3 -23 4 -30 19 -19 12 -26 -16 -18 -21 6 -28 14 -28 32 0 13 -4 25 -8 26
-15 3 -35 37 -30 50 4 10 9 11 19 2 7 -6 19 -9 26 -7 8 3 2 11 -15 22 -22 15
-30 16 -42 6 -13 -11 -18 -10 -30 6 -8 10 -15 22 -15 27 0 10 28 9 35 -3 6
-10 31 -3 60 18 19 13 18 14 -13 8 -27 -5 -37 -2 -51 15 -19 23 -81 32 -88 12
-3 -8 4 -13 15 -13 11 0 22 -6 25 -14 8 -19 -16 -38 -37 -30 -12 5 -16 0 -16
-16 0 -16 -4 -20 -16 -16 -9 3 -22 6 -30 6 -8 0 -14 6 -14 13 0 18 -30 51 -52
60 -21 8 -23 30 -5 49 13 13 15 18 20 68 3 36 16 52 37 45 13 -4 22 1 30 17
23 44 55 88 65 88 5 0 49 -41 98 -92z m-200 -293 c-5 -13 -23 -22 -23 -11 0
15 14 35 21 31 4 -3 6 -12 2 -20z m99 7 c-7 -2 -9 -9 -5 -15 4 -6 8 -22 9 -34
l3 -23 -29 22 c-34 27 -41 63 -10 53 12 -4 20 -2 20 5 0 6 5 8 12 4 9 -6 9 -9
0 -12z m-27 -84 c14 -6 25 -14 25 -17 0 -16 -81 -50 -125 -52 -55 -3 -61 9
-25 45 18 18 20 18 44 3 33 -22 36 -22 36 8 0 28 8 30 45 13z m-414 -31 c-2
-30 -16 -57 -27 -57 -28 0 -27 -31 2 -61 33 -34 25 -38 -17 -8 -17 12 -29 28
-27 38 1 9 -1 22 -5 29 -6 8 -2 12 10 12 24 0 43 19 43 43 0 10 5 17 11 15 6
-2 10 -7 10 -11z m-81 -128 c0 -5 -4 -9 -10 -9 -5 0 -10 7 -10 16 0 8 5 12 10
9 6 -3 10 -10 10 -16z m-18 -39 c5 0 8 -4 8 -10 0 -5 -7 -7 -15 -4 -11 5 -14
2 -9 -12 6 -16 5 -17 -7 -6 -7 7 -14 29 -16 50 l-2 37 17 -27 c9 -16 20 -28
24 -28z m-167 -20 c-23 -25 -31 -25 -38 1 -4 14 -2 19 7 16 7 -3 19 -1 27 3
21 14 24 2 4 -20z m50 -1 c4 -11 13 -18 20 -15 8 3 15 -5 18 -20 2 -13 1 -24
-2 -24 -15 1 -49 37 -54 58 -7 28 9 29 18 1z m761 -73 c10 -8 16 -17 13 -20
-3 -4 -17 2 -30 13 -27 23 -13 28 17 7z m-289 -118 c-3 -7 -5 -2 -5 12 0 14 2
19 5 13 2 -7 2 -19 0 -25z m-27 -22 c0 -3 -4 -8 -10 -11 -5 -3 -10 -1 -10 4 0
6 5 11 10 11 6 0 10 -2 10 -4z m162 -53 c6 -42 1 -54 -11 -34 -7 11 -9 11 -13
0 -3 -8 -8 1 -12 18 -8 36 -2 53 18 53 8 0 16 -15 18 -37z m-72 -75 c0 -19 -2
-20 -10 -8 -13 19 -13 30 0 30 6 0 10 -10 10 -22z m-555 -8 c3 -5 1 -10 -4
-10 -6 0 -11 5 -11 10 0 6 2 10 4 10 3 0 8 -4 11 -10z m491 -49 c11 9 14 9 14
0 0 -12 -24 -41 -33 -41 -8 0 -16 73 -9 84 4 6 8 -4 10 -22 3 -28 6 -31 18
-21z m-206 -76 c0 -8 -9 -24 -20 -35 -11 -11 -20 -29 -20 -39 0 -11 -5 -23
-10 -26 -16 -10 0 77 18 98 19 21 32 22 32 2z m180 1 c0 -3 -4 -8 -10 -11 -5
-3 -10 -1 -10 4 0 6 5 11 10 11 6 0 10 -2 10 -4z m-578 -42 c-6 -11 -11 -13
-16 -5 -4 6 -2 11 3 11 6 0 11 8 12 18 0 9 3 12 5 5 3 -7 1 -20 -4 -29z m42
-13 c3 -5 -1 -11 -9 -15 -9 -3 -15 0 -15 9 0 16 16 20 24 6z m333 -63 c-3 -8
-6 -5 -6 6 -1 11 2 17 5 13 3 -3 4 -12 1 -19z m101 -23 c6 -14 17 -25 24 -25
9 0 9 -3 1 -11 -15 -15 -29 -5 -41 31 -13 36 0 40 16 5z m-399 -35 l19 -40
-29 17 c-17 10 -27 23 -24 31 3 8 5 18 5 23 0 19 10 8 29 -31z m717 -67 c-10
-10 -19 5 -10 18 6 11 8 11 12 0 2 -7 1 -15 -2 -18z m-361 -103 c3 -5 1 -10
-4 -10 -6 0 -11 5 -11 10 0 6 2 10 4 10 3 0 8 -4 11 -10z m462 -26 c1 -5 -4
-17 -12 -27 -13 -18 -15 -18 -39 -2 -30 20 -36 41 -7 25 26 -14 31 -13 31 6 0
16 22 15 27 -2z m-728 -26 c8 -18 22 -55 32 -83 17 -50 17 -50 -2 -26 -10 13
-19 32 -19 44 0 11 -6 28 -14 36 -17 20 -30 61 -19 61 5 0 15 -15 22 -32z
m156 -68 c8 -16 15 -39 14 -52 -1 -21 -2 -20 -14 7 -30 70 -30 104 0 45z
m-169 -27 c-11 -11 -19 6 -11 24 8 17 8 17 12 0 3 -10 2 -21 -1 -24z m-171
-303 c-3 -5 -13 -10 -21 -10 -8 0 -14 5 -14 10 0 6 9 10 21 10 11 0 17 -4 14
-10z m145 0 c0 -5 -2 -10 -4 -10 -3 0 -8 5 -11 10 -3 6 -1 10 4 10 6 0 11 -4
11 -10z m-110 -25 c-7 -8 -17 -15 -22 -15 -6 0 -5 7 2 15 7 8 17 15 22 15 6 0
5 -7 -2 -15z m-195 -165 c3 -5 2 -10 -4 -10 -5 0 -13 5 -16 10 -3 6 -2 10 4
10 5 0 13 -4 16 -10z m885 -46 c0 -13 5 -24 10 -24 6 0 10 -4 10 -8 0 -7 -45
-9 -82 -3 -4 1 -3 13 3 29 13 37 59 42 59 6z m-960 -64 c0 -5 -7 -10 -15 -10
-8 0 -15 -5 -15 -12 0 -6 -3 -8 -6 -5 -8 8 14 37 27 37 5 0 9 -4 9 -10z m880
-22 c0 -5 -9 -4 -20 2 -11 6 -18 15 -14 21 6 11 34 -7 34 -23z m-940 -18 c0
-5 -5 -10 -11 -10 -5 0 -7 5 -4 10 3 6 8 10 11 10 2 0 4 -4 4 -10z m-70 -51
c0 -6 -4 -7 -10 -4 -5 3 -10 11 -10 16 0 6 5 7 10 4 6 -3 10 -11 10 -16z m25
-79 c-11 -17 -20 -11 -21 15 -2 21 0 22 13 10 8 -8 11 -19 8 -25z m1 -75 c-21
-16 -32 -13 -21 4 3 6 14 11 23 11 15 -1 15 -2 -2 -15z"/>
<path d="M4330 3050 c0 -11 0 -22 0 -25 0 -3 3 -5 8 -5 4 0 7 11 7 25 1 14 -3
25 -7 25 -4 0 -8 -9 -8 -20z"/>
<path d="M3270 3415 c0 -9 6 -12 15 -9 8 4 15 10 15 15 0 5 -7 9 -15 9 -8 0
-15 -7 -15 -15z"/>
<path d="M3220 3400 c0 -5 9 -10 21 -10 11 0 17 5 14 10 -3 6 -13 10 -21 10
-8 0 -14 -4 -14 -10z"/>
<path d="M1440 3275 c0 -19 5 -35 10 -35 6 0 10 16 10 35 0 19 -4 35 -10 35
-5 0 -10 -16 -10 -35z"/>
<path d="M4751 3278 c0 -10 -5 -18 -11 -18 -5 0 -10 -11 -10 -25 0 -18 5 -25
19 -25 21 0 34 23 21 36 -4 5 -10 18 -13 29 -4 16 -5 17 -6 3z"/>
<path d="M3880 3000 c-8 -5 -24 -11 -34 -15 -31 -9 -13 -14 32 -8 24 3 41 10
39 16 -5 15 -19 17 -37 7z"/>
<path d="M4120 2959 c0 -10 40 -32 47 -26 3 3 1 11 -4 19 -9 15 -43 20 -43 7z"/>
<path d="M3670 2714 c0 -8 5 -12 10 -9 6 4 8 11 5 16 -9 14 -15 11 -15 -7z"/>
<path d="M2120 2592 c0 -5 7 -15 15 -22 8 -7 15 -8 15 -2 0 5 -7 15 -15 22 -8
7 -15 8 -15 2z"/>
<path d="M4780 2541 c0 -6 5 -13 10 -16 6 -3 10 1 10 9 0 9 -4 16 -10 16 -5 0
-10 -4 -10 -9z"/>
<path d="M4076 2485 c4 -8 10 -12 15 -9 11 6 2 24 -11 24 -5 0 -7 -7 -4 -15z"/>
<path d="M4420 2466 c0 -9 7 -16 16 -16 17 0 14 22 -4 28 -7 2 -12 -3 -12 -12z"/>
<path d="M4425 2411 c-2 -5 4 -11 15 -14 11 -3 20 -2 20 3 0 12 -28 21 -35 11z"/>
<path d="M4406 2371 c-3 -5 1 -12 10 -15 20 -8 29 -1 19 13 -8 13 -22 14 -29
2z"/>
<path d="M4460 2366 c0 -8 11 -28 25 -43 24 -27 24 -28 25 -5 0 14 9 26 24 32
13 5 27 14 31 19 9 16 -17 13 -42 -4 -18 -13 -22 -13 -33 0 -16 19 -30 19 -30
1z"/>
<path d="M2261 2279 c-11 -54 -19 -68 -62 -110 -27 -26 -58 -50 -69 -54 -37
-12 -20 -25 33 -25 28 0 70 9 92 19 38 17 105 81 105 101 0 12 -73 129 -81
130 -4 0 -12 -28 -18 -61z"/>
<path d="M3790 2290 c18 -12 30 -13 30 -2 0 4 -10 9 -22 9 -18 2 -20 0 -8 -7z"/>
<path d="M4426 2265 c-4 -11 2 -15 24 -15 22 0 28 4 24 15 -4 8 -14 15 -24 15
-10 0 -20 -7 -24 -15z"/>
<path d="M3921 2253 c7 -10 15 -20 16 -22 1 -2 9 2 18 9 20 16 10 30 -22 30
-23 0 -24 -2 -12 -17z"/>
<path d="M4335 2239 c-4 -6 -5 -13 -2 -16 7 -7 27 6 27 18 0 12 -17 12 -25 -2z"/>
<path d="M3954 2216 c-10 -8 -16 -17 -13 -20 3 -3 14 1 25 8 10 8 16 17 13 20
-3 3 -14 -1 -25 -8z"/>
<path d="M4220 2120 c0 -5 7 -10 15 -10 8 0 15 5 15 10 0 6 -7 10 -15 10 -8 0
-15 -4 -15 -10z"/>
<path d="M4680 2116 c0 -14 29 -31 38 -21 6 6 -18 35 -29 35 -5 0 -9 -6 -9
-14z"/>
<path d="M4610 2080 c22 -30 50 -41 50 -17 0 21 -14 34 -43 41 l-29 7 22 -31z"/>
<path d="M4690 2060 c0 -5 5 -10 10 -10 6 0 10 5 10 10 0 6 -4 10 -10 10 -5 0
-10 -4 -10 -10z"/>
<path d="M4426 2011 c-3 -5 1 -11 9 -15 9 -3 15 0 15 9 0 16 -16 20 -24 6z"/>
<path d="M4535 2010 c-3 -5 0 -20 6 -32 l13 -23 6 25 c6 24 6 24 20 -10 8 -19
14 -43 15 -52 0 -10 4 -18 8 -18 4 0 11 0 15 0 16 0 11 49 -6 59 -13 8 -14 12
-4 19 11 7 11 11 0 19 -20 16 -66 24 -73 13z"/>
<path d="M4469 1952 c7 -13 7 -22 0 -29 -7 -7 -2 -20 16 -39 l25 -29 -6 30
c-4 23 -3 26 5 15 6 -8 11 -11 11 -6 0 5 8 2 17 -5 15 -13 16 -11 10 20 -4 18
-7 37 -7 42 0 5 -7 9 -16 9 -14 0 -14 -3 -4 -15 10 -12 10 -15 -4 -15 -9 0
-16 4 -16 10 0 5 -9 14 -21 20 -18 10 -19 10 -10 -8z"/>
<path d="M4520 1884 c0 -13 18 -39 24 -34 2 3 -2 14 -10 24 -8 11 -14 16 -14
10z"/>
<path d="M2370 1750 c0 -5 5 -10 10 -10 6 0 10 5 10 10 0 6 -4 10 -10 10 -5 0
-10 -4 -10 -10z"/>
<path d="M3560 1690 c0 -5 5 -10 10 -10 6 0 10 5 10 10 0 6 -4 10 -10 10 -5 0
-10 -4 -10 -10z"/>
<path d="M3625 1670 c-3 -5 -1 -10 4 -10 6 0 11 5 11 10 0 6 -2 10 -4 10 -3 0
-8 -4 -11 -10z"/>
<path d="M4015 1480 c-3 -5 -1 -10 4 -10 6 0 11 5 11 10 0 6 -2 10 -4 10 -3 0
-8 -4 -11 -10z"/>
<path d="M3455 1400 c-3 -5 -1 -10 4 -10 6 0 11 5 11 10 0 6 -2 10 -4 10 -3 0
-8 -4 -11 -10z"/>
<path d="M4445 1380 c-3 -5 -1 -10 4 -10 6 0 11 5 11 10 0 6 -2 10 -4 10 -3 0
-8 -4 -11 -10z"/>
<path d="M4410 1350 c0 -5 5 -10 10 -10 6 0 10 5 10 10 0 6 -4 10 -10 10 -5 0
-10 -4 -10 -10z"/>
<path d="M3343 1257 c4 -14 26 -16 30 -3 1 5 -6 10 -16 12 -10 1 -16 -3 -14
-9z"/>
<path d="M4347 1264 c-9 -9 3 -34 17 -34 6 0 12 9 12 20 0 19 -16 27 -29 14z"/>
<path d="M3365 1150 c3 -5 11 -10 16 -10 6 0 7 5 4 10 -3 6 -11 10 -16 10 -6
0 -7 -4 -4 -10z"/>
<path d="M4485 803 c-6 -5 -23 -28 -38 -53 -15 -25 -35 -56 -44 -69 -18 -24
-18 -24 10 -17 20 5 27 3 27 -9 0 -8 -7 -15 -15 -15 -8 0 -15 -5 -15 -11 0
-15 -61 -69 -79 -69 -7 0 -37 -25 -67 -56 -41 -41 -54 -63 -54 -85 0 -27 2
-29 28 -23 54 13 212 106 212 124 0 4 13 13 29 20 16 6 37 20 47 31 9 10 26
19 37 19 15 0 18 5 13 25 -4 14 -2 25 4 25 5 0 11 -8 12 -17 0 -10 2 -22 3
-28 2 -5 3 -25 4 -42 1 -39 31 -48 31 -9 0 13 7 29 15 36 8 7 15 19 15 26 0 8
11 19 24 24 19 7 23 14 19 31 -4 15 -3 20 6 15 12 -8 31 31 24 50 -5 14 -114
65 -146 69 -12 1 -38 5 -57 9 -19 3 -40 3 -45 -1z m15 -76 c0 -17 -34 -57 -48
-57 -6 0 -14 5 -17 10 -8 13 22 43 35 35 5 -3 10 1 10 9 0 9 5 16 10 16 6 0
10 -6 10 -13z m120 -97 c0 -5 -4 -10 -10 -10 -5 0 -10 5 -10 10 0 6 5 10 10
10 6 0 10 -4 10 -10z"/>
<path d="M2989 430 c13 -11 27 -20 32 -20 18 0 8 10 -23 25 l-33 16 24 -21z"/>
<path d="M3040 400 c0 -12 28 -25 36 -17 3 3 -4 10 -15 17 -15 7 -21 7 -21 0z"/>
</g>
</svg>
