<svg id="NEGATIVE" xmlns="http://www.w3.org/2000/svg" xmlns:xlink="http://www.w3.org/1999/xlink" viewBox="0 0 1000 1000"><defs><style>.cls-1{fill:url(#New_Gradient_Swatch_3);}.cls-2{fill:#fff;}</style><radialGradient id="New_Gradient_Swatch_3" cx="500" cy="500" r="500" gradientUnits="userSpaceOnUse"><stop offset="0" stop-color="#ff4600" stop-opacity="0.85"/><stop offset="0.44" stop-color="#ff4600" stop-opacity="0.86"/><stop offset="0.7" stop-color="#fd4600" stop-opacity="0.9"/><stop offset="0.91" stop-color="#fb4600" stop-opacity="0.96"/><stop offset="1" stop-color="#fa4600"/></radialGradient></defs><title>podigee(N)IMA</title><rect id="ICON" class="cls-1" width="1000" height="1000" rx="132.29" ry="132.29"/><path class="cls-2" d="M805,355.33A332.71,332.71,0,0,0,515.38,157a338.24,338.24,0,0,0-43.3.8A333.19,333.19,0,0,0,430.15,164a331.55,331.55,0,0,0-113.24,47.42,335,335,0,0,0-109,118q-4.94,9-9.3,18.19-1.09,2.31-2.16,4.64l-.93,2.08c-.21.45-.31.89-.72,1.12a7.1,7.1,0,0,1-1.23.41c-3,1-5.89,2.09-8.76,3.31A125,125,0,0,0,152.86,379a141.64,141.64,0,0,0-25.74,29.06,157.45,157.45,0,0,0-17.92,36.27,169,169,0,0,0-8.66,41.9,174.57,174.57,0,0,0,2,43.73,165.28,165.28,0,0,0,12.13,39.6,152.23,152.23,0,0,0,20.7,33.58,135.36,135.36,0,0,0,27.72,25.77,119.93,119.93,0,0,0,33.23,16.18c3,.91,9.72,2.44,10,2.8s1.49,2.73,1.95,3.56q1.32,2.37,2.67,4.72,5.4,9.36,11.39,18.36A333.37,333.37,0,0,0,389.94,804.71q10.41,3.64,21,6.58c1.78.49,3.57,1,5.35,1.43l1.35.35c.23.06,1.17.14,1.34.33s.15.84.2,1.06c.08.44.17.87.27,1.3a40.39,40.39,0,0,0,2.86,8.42c4.79,10.16,14.09,16.6,24.49,20.16,12.2,4.17,25.38,5.11,38.18,5.49s25.77.38,38.58-.52c11.29-.79,22.87-2.34,33.38-6.74,9.31-3.89,17.38-10.39,21.46-19.8a45,45,0,0,0,3.38-17,68.66,68.66,0,0,0-2.63-21.53,33.13,33.13,0,0,0-8-13.83,30.14,30.14,0,0,0-2.76-2.41,7,7,0,0,0-1.49-1.06c-.73-.28-2.26.4-3.06.58q-6.52,1.56-13.13,2.79A277.17,277.17,0,0,1,442.85,769,274.88,274.88,0,0,1,303.12,692a275,275,0,0,1-58.29-89.28,272.7,272.7,0,0,1-14.6-49.1,274.75,274.75,0,0,1,69.83-242.37,281.14,281.14,0,0,1,40.55-35.33A273.61,273.61,0,0,1,492,225.13,275.21,275.21,0,0,1,769,557.3c-3.53,16.64-16.57,58.28-16.59,60.15,0,3.38.05,6.77.35,10.14.45,5.15,1.35,10.61,4.06,15.11a14.65,14.65,0,0,0,10.18,7,38.68,38.68,0,0,0,8.4.21c3.08-.12,6.16-.38,9.22-.76A114.51,114.51,0,0,0,819.41,639a126.11,126.11,0,0,0,30.3-20.24,143.3,143.3,0,0,0,24.4-28.68,158.23,158.23,0,0,0,17-35.46,169.68,169.68,0,0,0,8.28-40.56,175.18,175.18,0,0,0-2-43.63,165.49,165.49,0,0,0-12.25-40.1,151.92,151.92,0,0,0-21-33.91A135,135,0,0,0,836,370.52,120.26,120.26,0,0,0,805,355.33Z"/><path class="cls-2" d="M527.51,657.69a19.65,19.65,0,0,1-2.53-.16,21,21,0,0,1-18.09-16.72L464.46,429.92l-37.1,79a21,21,0,0,1-19,12.09H316.67a21,21,0,0,1,0-42H395L453.47,354.4a21,21,0,0,1,39.64,4.79l42.43,210.89,37.1-79a21,21,0,0,1,19-12.09h91.66a21,21,0,0,1,0,42H605L546.53,645.6A21,21,0,0,1,527.51,657.69Z"/></svg>